<svg width="135" height="40" viewBox="0 0 135 40" fill="none" xmlns="http://www.w3.org/2000/svg">
  <path d="M132.028 0H2.9717C1.33047 0 0 1.33362 0 2.97872V37.0213C0 38.6664 1.33047 40 2.9717 40H132.028C133.67 40 135 38.6664 135 37.0213V2.97872C135 1.33362 133.67 0 132.028 0Z" fill="black"/>
  <path fill-rule="evenodd" clip-rule="evenodd" d="M132.028 0.8H2.9717C1.77231 0.8 0.798817 1.77478 0.798817 2.97872V37.0213C0.798817 38.2252 1.77231 39.2 2.9717 39.2H132.028C133.228 39.2 134.201 38.2252 134.201 37.0213V2.97872C134.201 1.77478 133.228 0.8 132.028 0.8ZM2.9717 0H132.028C133.67 0 135 1.33362 135 2.97872V37.0213C135 38.6664 133.67 40 132.028 40H2.9717C1.33047 40 0 38.6664 0 37.0213V2.97872C0 1.33362 1.33047 0 2.9717 0Z" fill="#A6A6A6"/>
  <path d="M48.5354 27.2495H43.9687L43.0118 30.0021H40.8853L45.3403 18.1814H47.1771L51.6402 30.0021H49.5136L48.5354 27.2495ZM44.5482 25.592H47.9666L46.2521 20.6889L44.5482 25.592ZM60.0798 25.6986C60.0798 27.0576 59.7724 28.143 59.1574 28.9549C58.8754 29.3095 58.5218 29.6005 58.1198 29.8086C57.7178 30.0167 57.2764 30.1373 56.8246 30.1624C56.3729 30.1876 55.9209 30.1167 55.4984 29.9546C55.0758 29.7924 54.6922 29.5425 54.3728 29.2213V33.3863H52.4057V21.2165H54.2186L54.301 22.1092C54.5841 21.7605 54.9443 21.4827 55.3531 21.2977C55.7618 21.1127 56.208 21.0256 56.6561 21.0433C57.1408 21.0233 57.623 21.1224 58.0608 21.3318C58.4986 21.5413 58.8787 21.8548 59.1681 22.2451C59.7724 23.0481 60.0745 24.1602 60.0745 25.5813L60.0798 25.6986ZM58.1208 25.528C58.1574 24.7947 57.9721 24.0675 57.5891 23.4416C57.4282 23.1924 57.2047 22.9901 56.9411 22.855C56.6774 22.7198 56.383 22.6565 56.0873 22.6715C55.7328 22.6495 55.3797 22.7321 55.0717 22.9093C54.7636 23.0864 54.5141 23.3502 54.3542 23.6681V27.5666C54.5128 27.8906 54.7635 28.1604 55.0748 28.3419C55.386 28.5235 55.7438 28.6088 56.1032 28.5871C56.3917 28.5977 56.6781 28.5339 56.935 28.4019C57.1919 28.2699 57.4107 28.074 57.5705 27.833C57.9338 27.325 58.1155 26.5566 58.1155 25.528H58.1208ZM69.4259 25.6986C69.4259 27.0576 69.1176 28.143 68.5009 28.9549C68.2191 29.3099 67.8656 29.6012 67.4635 29.8095C67.0615 30.0179 66.62 30.1386 66.1681 30.1638C65.7163 30.1889 65.2642 30.118 64.8416 29.9555C64.419 29.7931 64.0355 29.5429 63.7162 29.2213V33.3863H61.7492V21.2165H63.562L63.6444 22.1092C63.9274 21.7604 64.2876 21.4824 64.6964 21.2974C65.1052 21.1123 65.5514 21.0254 65.9996 21.0433C66.4838 21.0236 66.9656 21.1227 67.4029 21.3322C67.8403 21.5416 68.2199 21.855 68.5089 22.2451C69.1167 23.0481 69.4206 24.1602 69.4206 25.5813L69.4259 25.6986ZM67.4642 25.528C67.5008 24.7947 67.3155 24.0675 66.9326 23.4416C66.7731 23.1941 66.5518 22.9927 66.2907 22.8576C66.0295 22.7225 65.7376 22.6583 65.444 22.6715C65.0895 22.6491 64.7362 22.7316 64.4281 22.9088C64.12 23.086 63.8706 23.35 63.7109 23.6681V27.5666C63.8693 27.8908 64.1199 28.1608 64.4312 28.3424C64.7425 28.524 65.1005 28.6092 65.4599 28.5871C65.748 28.5975 66.034 28.5336 66.2904 28.4016C66.5468 28.2696 66.7652 28.0738 66.9246 27.833C67.2808 27.325 67.4589 26.5566 67.4589 25.528H67.4642ZM80.3244 28.4592C79.8643 29.0403 79.2496 29.4791 78.5514 29.725C77.7262 30.0249 76.8533 30.1712 75.9756 30.1567C75.0565 30.1732 74.1499 29.9402 73.352 29.4825C72.5879 29.029 71.974 28.3598 71.587 27.5586C71.1606 26.6408 70.9418 25.6398 70.9464 24.6274V23.716C70.9464 21.9271 71.3735 20.5335 72.2276 19.5351C73.0818 18.5367 74.2717 18.0331 75.7975 18.0242C77.1107 18.0242 78.1527 18.3493 78.9235 18.9995C79.6944 19.6497 80.1587 20.5859 80.3164 21.8081H78.3095C78.0809 20.3852 77.2595 19.6763 75.8374 19.6763C75.4324 19.6539 75.0282 19.7336 74.6618 19.9082C74.2954 20.0828 73.9785 20.3466 73.7401 20.6756C73.267 21.3365 73.0215 22.3082 73.0038 23.5908V24.4888C73.0038 25.7643 73.2696 26.7574 73.8013 27.468C74.0604 27.8152 74.4003 28.0939 74.7912 28.2796C75.1822 28.4653 75.6125 28.5526 76.0447 28.5338C77.0921 28.5338 77.8372 28.2958 78.2803 27.8197V25.4961H75.8507V23.9372H80.3191L80.3244 28.4592ZM87.621 29.9941C87.5082 29.7323 87.4321 29.4561 87.3951 29.1734C87.1024 29.4902 86.7463 29.7415 86.3501 29.9109C85.9539 30.0804 85.5265 30.1641 85.0958 30.1567C84.3072 30.1892 83.536 29.9185 82.94 29.3999C82.6734 29.169 82.4605 28.8823 82.3163 28.56C82.172 28.2378 82.1001 27.8877 82.1053 27.5346C82.0842 27.1177 82.1681 26.7022 82.3492 26.3264C82.5304 25.9506 82.8031 25.6265 83.142 25.3842C83.8385 24.8796 84.8326 24.6283 86.1245 24.63H87.3286V24.0598C87.3497 23.6606 87.2131 23.269 86.9485 22.9699C86.7958 22.8232 86.6138 22.7105 86.4145 22.6393C86.2152 22.5682 86.0031 22.5401 85.7922 22.5569C85.3964 22.5404 85.0069 22.6609 84.6891 22.898C84.5546 22.9952 84.4456 23.1234 84.3711 23.2719C84.2966 23.4203 84.2588 23.5845 84.2611 23.7507H82.2941C82.2963 23.2603 82.464 22.785 82.7699 22.4023C83.1099 21.9654 83.5567 21.624 84.0671 21.4111C84.6466 21.167 85.2699 21.0446 85.8985 21.0513C86.9246 21.0513 87.7424 21.3116 88.352 21.8321C88.6608 22.1011 88.9056 22.4361 89.0685 22.8123C89.2313 23.1886 89.308 23.5966 89.293 24.0065V27.9796C89.2656 28.6269 89.379 29.2725 89.6253 29.8715V30.0101L87.621 29.9941ZM85.4599 28.5711C85.8423 28.573 86.2187 28.4757 86.5524 28.2887C86.8806 28.1158 87.1506 27.8498 87.3286 27.5239V25.8771H86.2654C85.537 25.8771 84.9895 26.0041 84.6226 26.2582C84.4484 26.3746 84.3064 26.5334 84.2102 26.7199C84.1139 26.9063 84.0665 27.1142 84.0724 27.3241C84.0646 27.494 84.0939 27.6635 84.1581 27.8209C84.2224 27.9783 84.3201 28.1197 84.4445 28.2354C84.7271 28.4716 85.0871 28.5941 85.4546 28.5791L85.4599 28.5711ZM93.453 29.9941H91.4833V17.5312H93.453V29.9941ZM97.7061 29.9941H95.7391V17.5312H97.7061V29.9941ZM103.714 30.1567C103.154 30.1789 102.596 30.0858 102.074 29.8832C101.552 29.6806 101.077 29.3728 100.678 28.9789C99.907 28.1883 99.5207 27.1384 99.519 25.8292V25.5813C99.5045 24.7714 99.6764 23.969 100.021 23.2364C100.335 22.5742 100.829 22.0145 101.446 21.6216C102.053 21.2415 102.756 21.0437 103.472 21.0513C104.666 21.0513 105.587 21.4333 106.233 22.1972C106.88 22.961 107.206 24.0403 107.212 25.4348V26.2342H101.489C101.512 26.8768 101.768 27.4889 102.209 27.9556C102.419 28.1631 102.668 28.326 102.942 28.4346C103.216 28.5431 103.509 28.595 103.804 28.5871C104.232 28.596 104.656 28.5011 105.04 28.3104C105.423 28.1197 105.755 27.8389 106.008 27.4919L107.071 28.5072C106.717 29.0334 106.231 29.4563 105.662 29.733C105.049 30.0269 104.377 30.1746 103.698 30.1646L103.714 30.1567ZM103.464 22.6502C103.216 22.6421 102.97 22.689 102.743 22.7876C102.516 22.8862 102.314 23.034 102.151 23.2204C101.793 23.6684 101.575 24.2111 101.521 24.7819H105.263V24.6354C105.262 24.0907 105.075 23.5629 104.732 23.1405C104.568 22.9722 104.37 22.8413 104.151 22.7567C103.932 22.6721 103.698 22.6358 103.464 22.6502ZM113.336 23.0339C113.073 22.989 112.806 22.9667 112.539 22.9673C111.638 22.9673 111.029 23.3137 110.718 24.0065V30.0154H108.748V21.2219H110.627L110.675 22.2052C110.871 21.8526 111.158 21.5598 111.506 21.358C111.854 21.1562 112.251 21.053 112.653 21.0593C112.89 21.0526 113.127 21.0915 113.349 21.1739L113.336 23.0339ZM117.788 27.1802L119.572 21.2219H121.667L118.185 31.3478C117.653 32.8276 116.746 33.5666 115.465 33.5648C115.144 33.5601 114.824 33.5108 114.516 33.4183V31.8914L114.891 31.9154C115.282 31.9467 115.673 31.8534 116.008 31.6489C116.297 31.4157 116.507 31.0982 116.608 30.7402L116.89 29.9834L113.812 21.2165H115.938L117.788 27.1802Z" fill="white"/>
  <path d="M48.3553 14.1228H47.4994V12.5239H42.8236V14.1228H41.9624V11.8258H42.494C42.8045 11.4538 43.032 11.0195 43.1612 10.552C43.3348 9.98029 43.4401 9.38993 43.4749 8.79333L43.6184 5.99805H47.5153V11.8258H48.3659L48.3553 14.1228ZM43.4722 11.8151H46.662V6.70686H44.4558L44.3627 8.62812C44.34 9.27831 44.2391 9.92338 44.0623 10.5494C43.9336 11.0032 43.7345 11.434 43.4722 11.8258V11.8151ZM49.0358 10.0484C49.0264 9.60565 49.1173 9.16652 49.3016 8.76402C49.4714 8.39965 49.7439 8.09302 50.0853 7.88186C50.4268 7.6707 50.8224 7.56423 51.2234 7.57556C51.5234 7.56523 51.8219 7.62151 52.0976 7.74036C52.3734 7.85922 52.6195 8.03771 52.8183 8.26305C53.2438 8.77281 53.4621 9.42452 53.4297 10.0884V10.147C53.4384 10.5863 53.3475 11.0218 53.1639 11.4207C52.9954 11.7822 52.7258 12.0868 52.3877 12.2974C52.0408 12.5097 51.6404 12.6179 51.2341 12.6092C50.9344 12.6195 50.6361 12.5634 50.3604 12.4451C50.0848 12.3267 49.8385 12.1489 49.6392 11.9244C49.2218 11.421 49.0066 10.7796 49.0358 10.1257V10.0484ZM49.8678 10.147C49.8425 10.6134 49.9735 11.0748 50.2399 11.458C50.3587 11.6108 50.5107 11.7345 50.6844 11.8195C50.8581 11.9045 51.0488 11.9487 51.242 11.9487C51.4353 11.9487 51.626 11.9045 51.7997 11.8195C51.9733 11.7345 52.1253 11.6108 52.2442 11.458C52.5143 11.0466 52.6448 10.5588 52.6163 10.0671C52.6373 9.60578 52.5035 9.15076 52.2362 8.77468C52.1191 8.62109 51.9682 8.49662 51.7954 8.41096C51.6225 8.32529 51.4322 8.28073 51.2394 8.28073C51.0465 8.28073 50.8563 8.32529 50.6834 8.41096C50.5105 8.49662 50.3597 8.62109 50.2426 8.77468C49.9709 9.18253 49.8393 9.66807 49.8678 10.1577V10.147ZM56.4255 11.9324C56.7067 11.9388 56.9811 11.8443 57.199 11.6659C57.3035 11.5859 57.3902 11.4848 57.4534 11.3691C57.5166 11.2535 57.5549 11.1258 57.5658 10.9944H58.35C58.3315 11.2827 58.232 11.5598 58.0629 11.7938C57.8808 12.0496 57.6377 12.2558 57.3558 12.3934C56.946 12.5964 56.4824 12.6638 56.0319 12.5857C55.5814 12.5076 55.1672 12.2882 54.8492 11.959C54.4378 11.4482 54.2304 10.8025 54.267 10.147V10.0084C54.2609 9.57284 54.3517 9.14136 54.5328 8.74536C54.6915 8.3938 54.9493 8.09646 55.2745 7.88999C55.6212 7.68004 56.0205 7.57372 56.4255 7.58355C56.9226 7.56633 57.4072 7.74195 57.7785 8.07386C57.9563 8.23431 58.0992 8.42971 58.1984 8.64793C58.2977 8.86614 58.3511 9.10248 58.3553 9.34226H57.5711C57.5566 9.04838 57.4278 8.77191 57.2123 8.57216C57.107 8.46951 56.9821 8.3894 56.845 8.33672C56.7079 8.28403 56.5615 8.25988 56.4148 8.26572C56.2265 8.25681 56.0389 8.29386 55.868 8.3737C55.6972 8.45353 55.5482 8.57376 55.434 8.72405C55.1799 9.11277 55.0595 9.57409 55.0911 10.0377V10.195C55.062 10.6517 55.1824 11.1055 55.434 11.4874C55.5495 11.6387 55.7003 11.7593 55.8732 11.8388C56.046 11.9182 56.2356 11.954 56.4255 11.943V11.9324ZM62.8795 8.33766H61.2553V12.5239H60.426V8.34832H58.8311V7.67682H62.8768L62.8795 8.33766ZM65.3223 11.3035L66.4547 7.67682H67.3425L65.3941 13.2727C65.0946 14.0792 64.6161 14.4834 63.9587 14.4852H63.8018L63.4935 14.4265V13.747L63.7168 13.7657C63.9473 13.7799 64.1763 13.7202 64.3707 13.5951C64.56 13.4314 64.6953 13.214 64.7588 12.9716L64.9422 12.4786L63.2144 7.68214H64.1208L65.3223 11.3035ZM72.0368 12.5239H71.2128V8.36431H68.9853V12.5239H68.1506V7.67682H72.0368V12.5239ZM77.3212 12.5239H76.4946V10.4588H74.2697V12.5239H73.4377V7.67682H74.2697V9.78194H76.4946V7.67682H77.3212V12.5239ZM78.435 10.0511C78.4283 9.60712 78.5238 9.16759 78.7141 8.76668C78.8838 8.40274 79.1558 8.09639 79.4967 7.88527C79.8377 7.67414 80.2327 7.56742 80.6333 7.57822C80.9333 7.56752 81.232 7.62363 81.5077 7.74251C81.7835 7.86139 82.0296 8.04008 82.2282 8.26572C82.6556 8.77455 82.8749 9.42669 82.8422 10.091V10.1497C82.8523 10.5891 82.7613 11.0249 82.5764 11.4234C82.4097 11.7852 82.1408 12.0901 81.8029 12.3001C81.4555 12.5113 81.0555 12.6194 80.6493 12.6119C80.3496 12.6218 80.0514 12.5656 79.7758 12.4472C79.5002 12.3289 79.2539 12.1513 79.0544 11.927C78.6336 11.4239 78.4148 10.7817 78.4403 10.1257L78.435 10.0511ZM79.2697 10.1497C79.2458 10.6155 79.3777 11.0759 79.6445 11.458C79.7604 11.6144 79.9123 11.7404 80.0872 11.8253C80.2622 11.9102 80.455 11.9515 80.6493 11.9457C80.8433 11.9522 81.0359 11.9112 81.2106 11.8263C81.3852 11.7413 81.5365 11.6149 81.6514 11.458C81.9206 11.0463 82.0501 10.5585 82.0209 10.0671C82.0433 9.6056 81.9094 9.15011 81.6408 8.77468C81.5239 8.62112 81.3733 8.49666 81.2006 8.41099C81.028 8.32532 80.8379 8.28075 80.6453 8.28075C80.4526 8.28075 80.2626 8.32532 80.0899 8.41099C79.9172 8.49666 79.7666 8.62112 79.6498 8.77468C79.3781 9.18253 79.2465 9.66807 79.275 10.1577L79.2697 10.1497ZM86.2394 12.5239V7.67682H88.1267C88.6435 7.64578 89.1583 7.76417 89.6099 8.0179C89.7765 8.12197 89.9123 8.2687 90.0034 8.44295C90.0945 8.6172 90.1376 8.81266 90.1283 9.00917C90.1302 9.2294 90.0592 9.44404 89.9262 9.61939C89.7726 9.81274 89.5655 9.9564 89.3308 10.0324C89.6017 10.0897 89.848 10.2304 90.0352 10.4348C90.2112 10.6324 90.3062 10.8894 90.301 11.1543C90.311 11.3527 90.2709 11.5505 90.1845 11.7293C90.0981 11.9082 89.9681 12.0623 89.8066 12.1775C89.3941 12.4374 88.9107 12.5613 88.4244 12.5319L86.2394 12.5239ZM87.0661 10.3922V11.8551H88.435C88.7075 11.8752 88.9793 11.808 89.2112 11.6632C89.2952 11.6025 89.3632 11.5223 89.4095 11.4295C89.4558 11.3367 89.479 11.234 89.477 11.1303C89.477 10.6453 89.1226 10.4028 88.4137 10.4028L87.0661 10.3922ZM87.0661 9.72864H88.1293C88.9029 9.72864 89.2909 9.49948 89.2909 9.04648C89.2909 8.59348 88.9241 8.35632 88.1905 8.34033H87.0581L87.0661 9.72864Z" fill="white"/>
  <path d="M27.0762 5.95801H12.1692C8.57248 5.95801 5.65674 8.88094 5.65674 12.4866V27.4303C5.65674 31.0359 8.57248 33.9588 12.1692 33.9588H27.0762C30.6729 33.9588 33.5887 31.0359 33.5887 27.4303V12.4866C33.5887 8.88094 30.6729 5.95801 27.0762 5.95801Z" fill="url(#paint0_linear)"/>
  <path d="M12.6104 9.49959C13.0376 9.49959 13.384 9.15242 13.384 8.72416C13.384 8.2959 13.0376 7.94873 12.6104 7.94873C12.1832 7.94873 11.8369 8.2959 11.8369 8.72416C11.8369 9.15242 12.1832 9.49959 12.6104 9.49959Z" fill="#C33244"/>
  <path d="M26.5235 9.49959C26.9507 9.49959 27.297 9.15242 27.297 8.72416C27.297 8.2959 26.9507 7.94873 26.5235 7.94873C26.0963 7.94873 25.75 8.2959 25.75 8.72416C25.75 9.15242 26.0963 9.49959 26.5235 9.49959Z" fill="#C33244"/>
  <path d="M19.4981 13.0568H19.3705C16.5742 13.0035 14.009 11.5379 12.3291 9.02513C12.3043 8.98821 12.287 8.94676 12.2782 8.90314C12.2694 8.85953 12.2692 8.8146 12.2778 8.77093C12.2863 8.72725 12.3033 8.68569 12.3278 8.64861C12.3524 8.61152 12.384 8.57965 12.4208 8.5548C12.4576 8.52996 12.499 8.51263 12.5425 8.5038C12.586 8.49498 12.6308 8.49483 12.6744 8.50336C12.7179 8.5119 12.7594 8.52896 12.7964 8.55356C12.8334 8.57816 12.8652 8.60982 12.8899 8.64674C14.445 10.973 16.8107 12.3294 19.3812 12.3773C22.0207 12.4173 24.5221 11.045 26.2445 8.64674C26.2967 8.57359 26.3757 8.52422 26.4642 8.50947C26.5527 8.49473 26.6434 8.51583 26.7164 8.56813C26.7893 8.62043 26.8386 8.69964 26.8533 8.78834C26.868 8.87704 26.847 8.96797 26.7948 9.04111C24.9686 11.5912 22.3291 13.0568 19.4981 13.0568Z" fill="white"/>
  <path d="M14.1362 16.8892C14.1304 16.8824 14.1233 16.877 14.1153 16.8733C14.1072 16.8696 14.0985 16.8677 14.0897 16.8677C14.0808 16.8677 14.0721 16.8696 14.064 16.8733C14.056 16.877 14.0489 16.8824 14.0431 16.8892C13.7959 17.1397 12.7141 18.3175 12.7965 19.4953C12.8427 20.1125 13.1291 20.6867 13.5939 21.0941C13.6258 21.1181 14.6758 22.2453 18.4397 24.1239C18.4497 24.13 18.4612 24.1332 18.473 24.1332C18.4847 24.1332 18.4962 24.13 18.5062 24.1239C18.5125 24.1149 18.5159 24.1042 18.5159 24.0932C18.5159 24.0823 18.5125 24.0716 18.5062 24.0626C17.3284 21.5116 15.8621 19.1046 14.1362 16.8892Z" fill="white"/>
  <path d="M18.0572 25.123C18.0572 25.083 17.9934 25.083 17.9934 25.083L13.2087 25.2509C13.1975 25.2509 13.1866 25.2539 13.1771 25.2597C13.1675 25.2654 13.1597 25.2737 13.1545 25.2836C13.1493 25.2934 13.1469 25.3046 13.1476 25.3157C13.1482 25.3268 13.1519 25.3376 13.1582 25.3468C13.6898 26.2528 14.5643 26.9456 15.4654 26.7138C16.1087 26.5539 17.5654 25.5333 18.0465 25.1896C18.0758 25.1496 18.0572 25.123 18.0572 25.123Z" fill="white"/>
  <path d="M18.1185 24.6112C16.1249 23.2629 12.4034 21.2484 11.8585 20.9526C11.8503 20.9483 11.8412 20.9458 11.8319 20.9454C11.8226 20.945 11.8133 20.9466 11.8047 20.9501C11.796 20.9537 11.7883 20.9591 11.782 20.966C11.7757 20.9728 11.771 20.981 11.7681 20.9899C11.5632 21.6844 11.624 22.4305 11.9386 23.0824C12.2532 23.7344 12.799 24.2453 13.4694 24.5153C13.7692 24.6334 14.086 24.7026 14.4077 24.7205C14.4821 24.7205 17.3317 24.7205 18.0839 24.7205C18.0944 24.7199 18.1045 24.7167 18.1133 24.7111C18.1222 24.7055 18.1295 24.6977 18.1344 24.6885C18.1425 24.6761 18.1454 24.6611 18.1424 24.6466C18.1394 24.6321 18.1308 24.6194 18.1185 24.6112Z" fill="white"/>
  <path d="M17.6746 14.8589C16.3747 15.1893 15.6623 16.5217 16.077 17.934C16.5103 19.8606 18.6421 23.0263 19.0993 23.6898C19.1312 23.7218 19.1578 23.7084 19.1578 23.7084C19.1714 23.7053 19.1834 23.6974 19.1917 23.6862C19.2 23.6749 19.204 23.6611 19.203 23.6471C19.8543 17.0999 18.6714 15.0081 18.4826 14.7363C18.4769 14.7262 18.4683 14.718 18.4579 14.7127C18.4475 14.7075 18.4357 14.7055 18.4242 14.707C18.1903 14.7417 17.6746 14.8589 17.6746 14.8589Z" fill="white"/>
  <path d="M23.1821 16.3773C23.0632 16.0069 22.8519 15.6732 22.568 15.4078C22.2842 15.1424 21.9374 14.9542 21.5606 14.8611C21.5606 14.8611 21.2124 14.7732 20.8296 14.7145C20.6701 14.6906 19.3756 16.9662 20.0322 23.66C20.0327 23.6715 20.0365 23.6826 20.0431 23.692C20.0497 23.7014 20.0588 23.7088 20.0694 23.7133C20.0821 23.7187 20.0964 23.719 20.1093 23.714C20.1222 23.709 20.1327 23.6992 20.1385 23.6866C20.6116 23.0045 22.7302 19.8548 23.1608 17.9362C23.1741 17.9335 23.408 17.0062 23.1821 16.3773Z" fill="white"/>
  <path d="M21.2473 25.083C21.2386 25.0852 21.2306 25.0894 21.2237 25.0952C21.2168 25.1009 21.2112 25.1081 21.2074 25.1162C21.2036 25.1244 21.2017 25.1333 21.2017 25.1422C21.2017 25.1512 21.2036 25.1601 21.2074 25.1682C21.2074 25.1682 21.2074 25.1816 21.2074 25.1842C21.6779 25.52 23.1 26.5166 23.7858 26.7111C23.7858 26.7111 25.0113 27.1295 26.0984 25.3414C26.1045 25.332 26.108 25.3211 26.1086 25.3099C26.1091 25.2987 26.1067 25.2875 26.1016 25.2775C26.0965 25.2675 26.0888 25.259 26.0794 25.253C26.07 25.2469 26.0591 25.2434 26.0479 25.2428L21.2446 25.0776L21.2473 25.083Z" fill="white"/>
  <path d="M27.4773 20.9797C27.4745 20.9708 27.4697 20.9626 27.4634 20.9557C27.4571 20.9488 27.4494 20.9434 27.4408 20.9399C27.4322 20.9363 27.4229 20.9347 27.4136 20.9351C27.4043 20.9356 27.3952 20.938 27.3869 20.9423C26.8553 21.2355 23.1339 23.258 21.1323 24.6037C21.1225 24.6103 21.1149 24.6197 21.1106 24.6306C21.1062 24.6416 21.1053 24.6536 21.1079 24.6652C21.1105 24.6767 21.1165 24.6871 21.1251 24.6952C21.1337 24.7032 21.1445 24.7085 21.1562 24.7102C21.927 24.7102 24.8484 24.7102 24.9228 24.7102C25.2115 24.6858 25.4952 24.6203 25.7654 24.5157C26.4702 24.2395 27.0376 23.6956 27.3444 23.0022C27.6233 22.3643 27.6704 21.6487 27.4773 20.9797Z" fill="white"/>
  <path d="M26.4516 19.4846C26.5287 18.2668 25.4548 17.1263 25.2076 16.8838C25.2018 16.8771 25.1947 16.8717 25.1867 16.8679C25.1787 16.8642 25.1699 16.8623 25.1611 16.8623C25.1522 16.8623 25.1435 16.8642 25.1355 16.8679C25.1274 16.8717 25.1203 16.8771 25.1146 16.8838C23.3863 19.0902 21.9165 21.4881 20.7339 24.0306C20.7275 24.0419 20.725 24.055 20.7265 24.068C20.7281 24.0809 20.7337 24.093 20.7426 24.1025C20.7515 24.112 20.7632 24.1184 20.776 24.1208C20.7887 24.1232 20.8019 24.1215 20.8136 24.1158C24.4261 22.3145 25.4707 21.2406 25.6515 21.0914C26.1178 20.6815 26.4051 20.1045 26.4516 19.4846Z" fill="white"/>
  <path d="M13.5042 29.1333H12.2655C12.257 29.1333 12.2489 29.13 12.243 29.124C12.237 29.118 12.2336 29.1098 12.2336 29.1014V28.1207C12.2336 28.1167 12.2328 28.1126 12.2312 28.1089C12.2295 28.1051 12.2271 28.1018 12.2241 28.099C12.2211 28.0963 12.2176 28.0942 12.2137 28.0928C12.2099 28.0915 12.2058 28.0911 12.2017 28.0914H11.6701C11.666 28.0911 11.6619 28.0915 11.6581 28.0928C11.6542 28.0942 11.6507 28.0963 11.6477 28.099C11.6447 28.1018 11.6423 28.1051 11.6406 28.1089C11.639 28.1126 11.6382 28.1167 11.6382 28.1207V30.6442C11.6382 30.6484 11.639 30.6526 11.6406 30.6565C11.6422 30.6603 11.6446 30.6639 11.6475 30.6668C11.6505 30.6698 11.654 30.6722 11.6579 30.6738C11.6617 30.6754 11.6659 30.6762 11.6701 30.6762H12.2017C12.2092 30.6749 12.216 30.671 12.2209 30.6651C12.2258 30.6593 12.2284 30.6519 12.2283 30.6442V29.6316C12.2283 29.6275 12.2291 29.6235 12.2307 29.6198C12.2324 29.616 12.2348 29.6127 12.2378 29.6099C12.2408 29.6071 12.2443 29.605 12.2482 29.6037C12.252 29.6024 12.2561 29.6019 12.2602 29.6023H13.5042C13.512 29.6023 13.5194 29.6054 13.5249 29.6109C13.5304 29.6164 13.5335 29.6239 13.5335 29.6316V30.6442C13.5341 30.6525 13.5376 30.6603 13.5435 30.6662C13.5493 30.672 13.5571 30.6756 13.5654 30.6762H14.097C14.1012 30.6762 14.1053 30.6754 14.1092 30.6738C14.1131 30.6722 14.1166 30.6698 14.1195 30.6668C14.1225 30.6639 14.1248 30.6603 14.1265 30.6565C14.1281 30.6526 14.1289 30.6484 14.1289 30.6442V28.1314C14.1289 28.1273 14.1281 28.1233 14.1264 28.1195C14.1248 28.1158 14.1224 28.1124 14.1194 28.1097C14.1164 28.1069 14.1129 28.1048 14.109 28.1035C14.1051 28.1022 14.101 28.1017 14.097 28.1021H13.5574C13.5494 28.1021 13.5416 28.1051 13.5357 28.1105C13.5298 28.1159 13.5261 28.1234 13.5255 28.1314V29.112C13.5242 29.1172 13.5215 29.1219 13.5178 29.1256C13.514 29.1294 13.5094 29.132 13.5042 29.1333Z" fill="white"/>
  <path d="M16.4277 29.6343C16.4277 30.0873 16.2894 30.2765 15.8057 30.2765C15.3219 30.2765 15.1783 30.0873 15.1783 29.6343V28.1207C15.1783 28.113 15.1753 28.1055 15.1698 28.1C15.1643 28.0945 15.1569 28.0914 15.1491 28.0914H14.6201C14.6161 28.0911 14.612 28.0915 14.6081 28.0928C14.6043 28.0942 14.6007 28.0963 14.5977 28.099C14.5947 28.1018 14.5923 28.1051 14.5907 28.1089C14.589 28.1126 14.5882 28.1167 14.5882 28.1207V29.645C14.5556 29.8873 14.6112 30.1333 14.7451 30.3378C14.9737 30.6043 15.3112 30.6922 15.8083 30.6922C16.3054 30.6922 16.6244 30.5909 16.853 30.3378C16.9884 30.1339 17.046 29.8879 17.0151 29.645V28.1207C17.0151 28.113 17.012 28.1055 17.0066 28.1C17.0011 28.0945 16.9936 28.0914 16.9859 28.0914H16.4543C16.4502 28.0911 16.4461 28.0915 16.4422 28.0928C16.4384 28.0942 16.4348 28.0963 16.4318 28.099C16.4288 28.1018 16.4264 28.1051 16.4248 28.1089C16.4232 28.1126 16.4223 28.1167 16.4224 28.1207L16.4277 29.6343Z" fill="white"/>
  <path d="M18.3017 28.11L17.1533 30.6202C17.1512 30.6249 17.1502 30.63 17.1504 30.6352C17.1507 30.6403 17.1522 30.6453 17.1548 30.6498C17.1574 30.6542 17.1611 30.658 17.1654 30.6607C17.1698 30.6635 17.1748 30.6651 17.1799 30.6655H17.7302C17.7366 30.6653 17.7429 30.6632 17.7481 30.6594C17.7533 30.6556 17.7572 30.6503 17.7594 30.6441L17.9907 30.0712C17.9929 30.0654 17.997 30.0605 18.0022 30.0571C18.0075 30.0537 18.0137 30.0522 18.0199 30.0526H19.1842C19.1904 30.0522 19.1966 30.0537 19.2018 30.0571C19.2071 30.0605 19.2112 30.0654 19.2134 30.0712L19.4526 30.6441C19.4548 30.6503 19.4587 30.6556 19.464 30.6594C19.4692 30.6632 19.4754 30.6653 19.4819 30.6655H20.064C20.0692 30.6651 20.0741 30.6635 20.0785 30.6607C20.0829 30.658 20.0865 30.6542 20.0891 30.6498C20.0918 30.6453 20.0932 30.6403 20.0935 30.6352C20.0938 30.63 20.0928 30.6249 20.0906 30.6202L18.937 28.11C18.9344 28.1044 18.9303 28.0997 18.9251 28.0964C18.9199 28.093 18.9139 28.0913 18.9077 28.0914H18.3415C18.3377 28.0897 18.3336 28.0888 18.3294 28.0889C18.3253 28.0889 18.3211 28.0899 18.3174 28.0916C18.3136 28.0934 18.3102 28.0959 18.3075 28.0991C18.3048 28.1023 18.3028 28.106 18.3017 28.11ZM18.206 29.549L18.5675 28.6723C18.5702 28.6673 18.5743 28.6631 18.5792 28.6602C18.5841 28.6573 18.5897 28.6558 18.5954 28.6558C18.6011 28.6558 18.6067 28.6573 18.6116 28.6602C18.6165 28.6631 18.6205 28.6673 18.6233 28.6723L18.9981 29.549C19.0003 29.5538 19.0013 29.5592 19.0009 29.5646C19.0005 29.57 18.9988 29.5751 18.9959 29.5796C18.993 29.5842 18.989 29.5879 18.9842 29.5904C18.9795 29.593 18.9742 29.5943 18.9689 29.5943H18.2352C18.2298 29.5943 18.2245 29.593 18.2198 29.5904C18.2151 29.5879 18.2111 29.5842 18.2082 29.5796C18.2053 29.5751 18.2035 29.57 18.2031 29.5646C18.2028 29.5592 18.2037 29.5538 18.206 29.549Z" fill="white"/>
  <path d="M22.836 29.9752L22.2512 28.1099C22.2491 28.1038 22.2451 28.0985 22.2399 28.0947C22.2347 28.0909 22.2285 28.0887 22.222 28.0886H21.5787C21.5721 28.0878 21.5654 28.0895 21.5599 28.0935C21.5545 28.0974 21.5508 28.1033 21.5495 28.1099L21.0391 29.9752C21.0391 29.983 21.036 29.9904 21.0306 29.9959C21.0251 30.0014 21.0176 30.0045 21.0099 30.0045C21.0021 30.0045 20.9947 30.0014 20.9892 29.9959C20.9837 29.9904 20.9806 29.983 20.9806 29.9752L20.3772 28.1099C20.3751 28.1038 20.3711 28.0985 20.3659 28.0947C20.3607 28.0909 20.3545 28.0887 20.348 28.0886H19.7871C19.7822 28.0882 19.7773 28.0891 19.7728 28.0912C19.7683 28.0933 19.7644 28.0965 19.7615 28.1005C19.7586 28.1045 19.7567 28.1091 19.7561 28.114C19.7555 28.1189 19.7561 28.1239 19.7579 28.1285L20.6617 30.6414C20.6638 30.6475 20.6678 30.6528 20.673 30.6566C20.6782 30.6604 20.6844 30.6625 20.6909 30.6627H21.3554C21.3626 30.6625 21.3695 30.6601 21.3752 30.6558C21.3809 30.6515 21.3851 30.6455 21.3873 30.6387L21.8711 28.8427C21.8711 28.8349 21.8742 28.8274 21.8797 28.822C21.8852 28.8165 21.8926 28.8134 21.9004 28.8134C21.9081 28.8134 21.9156 28.8165 21.921 28.822C21.9265 28.8274 21.9296 28.8349 21.9296 28.8427L22.4825 30.644C22.4845 30.6504 22.4884 30.6561 22.4936 30.6604C22.4988 30.6646 22.5051 30.6673 22.5117 30.668H23.1843C23.1907 30.6678 23.197 30.6657 23.2022 30.6619C23.2074 30.6581 23.2113 30.6528 23.2135 30.6467L24.0508 28.1339C24.0526 28.1293 24.0532 28.1243 24.0526 28.1194C24.052 28.1145 24.0501 28.1098 24.0472 28.1058C24.0443 28.1018 24.0404 28.0986 24.0359 28.0965C24.0314 28.0945 24.0265 28.0936 24.0216 28.0939H23.4899C23.4834 28.0936 23.4769 28.0956 23.4716 28.0995C23.4663 28.1033 23.4625 28.1089 23.4607 28.1152L22.8945 29.9805C22.8916 29.986 22.887 29.9906 22.8815 29.9936C22.876 29.9965 22.8698 29.9978 22.8635 29.9972C22.8573 29.9967 22.8514 29.9943 22.8465 29.9904C22.8416 29.9864 22.838 29.9812 22.836 29.9752Z" fill="white"/>
  <path d="M26.9888 28.1206V30.6441C26.9888 30.6481 26.9896 30.6522 26.9912 30.6559C26.9929 30.6597 26.9953 30.663 26.9983 30.6658C27.0013 30.6685 27.0048 30.6706 27.0087 30.6719C27.0126 30.6733 27.0167 30.6737 27.0207 30.6734H27.5697C27.5777 30.6734 27.5855 30.6704 27.5914 30.665C27.5973 30.6595 27.601 30.6521 27.6017 30.6441V28.1312C27.601 28.1232 27.5973 28.1158 27.5914 28.1103C27.5855 28.1049 27.5777 28.1019 27.5697 28.1019H27.0207C27.0141 28.1009 27.0073 28.1022 27.0014 28.1056C26.9956 28.109 26.9911 28.1143 26.9888 28.1206Z" fill="white"/>
  <path fill-rule="evenodd" clip-rule="evenodd" d="M24.9233 28.0914H24.4342C24.4301 28.0914 24.4259 28.0923 24.422 28.0939C24.4182 28.0955 24.4146 28.0978 24.4117 28.1008C24.4087 28.1038 24.4064 28.1073 24.4048 28.1112C24.4032 28.1151 24.4023 28.1192 24.4023 28.1234V30.6442C24.4023 30.6484 24.4032 30.6526 24.4048 30.6565C24.4064 30.6603 24.4087 30.6639 24.4117 30.6668C24.4146 30.6698 24.4182 30.6722 24.422 30.6738C24.4259 30.6754 24.4301 30.6762 24.4342 30.6762H26.4358C26.44 30.6762 26.4442 30.6754 26.448 30.6738C26.4519 30.6722 26.4554 30.6698 26.4584 30.6668C26.4614 30.6639 26.4637 30.6603 26.4653 30.6565C26.4669 30.6526 26.4677 30.6484 26.4677 30.6442V30.2578C26.4678 30.2538 26.4669 30.2497 26.4653 30.246C26.4637 30.2422 26.4613 30.2389 26.4583 30.2361C26.4552 30.2334 26.4517 30.2313 26.4478 30.2299C26.444 30.2286 26.4399 30.2282 26.4358 30.2285H24.9871V29.5783H26.4358C26.4443 29.5783 26.4524 29.575 26.4584 29.569C26.4644 29.563 26.4677 29.5548 26.4677 29.5464V29.16C26.4677 29.1515 26.4644 29.1434 26.4584 29.1374C26.4524 29.1314 26.4443 29.128 26.4358 29.128H24.9871V28.5391H26.4358C26.4399 28.5395 26.444 28.539 26.4478 28.5377C26.4517 28.5364 26.4552 28.5343 26.4583 28.5315C26.4613 28.5288 26.4637 28.5254 26.4653 28.5217C26.4669 28.5179 26.4678 28.5139 26.4677 28.5098V28.1207C26.4678 28.1167 26.4669 28.1126 26.4653 28.1089C26.4637 28.1051 26.4613 28.1018 26.4583 28.099C26.4552 28.0963 26.4517 28.0942 26.4478 28.0928C26.444 28.0915 26.4399 28.0911 26.4358 28.0914H24.9233Z" fill="white"/>
  <defs>
    <linearGradient id="paint0_linear" x1="19.6227" y1="5.95534" x2="19.6227" y2="33.9561" gradientUnits="userSpaceOnUse">
      <stop stop-color="#DD475E"/>
      <stop offset="1" stop-color="#C32A2E"/>
    </linearGradient>
  </defs>
</svg>
