<svg viewBox="0 0 135 40" fill="none" xmlns="http://www.w3.org/2000/svg">
  <path d="M132.028 0H2.9717C1.33047 0 0 1.33362 0 2.97872V37.0213C0 38.6664 1.33047 40 2.9717 40H132.028C133.67 40 135 38.6664 135 37.0213V2.97872C135 1.33362 133.67 0 132.028 0Z" fill="black"/>
  <path fill-rule="evenodd" clip-rule="evenodd" d="M132.028 0.8H2.9717C1.77231 0.8 0.798817 1.77478 0.798817 2.97872V37.0213C0.798817 38.2252 1.77231 39.2 2.9717 39.2H132.028C133.228 39.2 134.201 38.2252 134.201 37.0213V2.97872C134.201 1.77478 133.228 0.8 132.028 0.8ZM2.9717 0H132.028C133.67 0 135 1.33362 135 2.97872V37.0213C135 38.6664 133.67 40 132.028 40H2.9717C1.33047 40 0 38.6664 0 37.0213V2.97872C0 1.33362 1.33047 0 2.9717 0Z" fill="#A6A6A6"/>
  <path d="M30.4059 19.024C30.4166 18.1893 30.6368 17.371 31.0461 16.645C31.4553 15.9191 32.0404 15.3091 32.7467 14.8719C32.298 14.2267 31.7061 13.6958 31.0178 13.3213C30.3296 12.9467 29.5641 12.7389 28.7822 12.7142C27.1141 12.538 25.497 13.7191 24.647 13.7191C23.7805 13.7191 22.4718 12.7318 21.0625 12.7609C20.1509 12.7906 19.2625 13.0575 18.4839 13.5355C17.7052 14.0135 17.0628 14.6865 16.6193 15.4888C14.6982 18.8372 16.1311 23.7583 17.9715 26.4649C18.8922 27.7902 19.9683 29.2706 21.3763 29.2182C22.7541 29.1607 23.2687 28.3337 24.9319 28.3337C26.5796 28.3337 27.0624 29.2182 28.499 29.1848C29.9775 29.1606 30.909 27.8535 31.7974 26.5157C32.4589 25.5713 32.968 24.5276 33.3057 23.4232C32.4468 23.0575 31.7138 22.4453 31.1981 21.663C30.6824 20.8807 30.4069 19.9628 30.4059 19.024Z" fill="white"/>
  <path d="M27.6928 10.9345C28.4989 9.96029 28.896 8.70812 28.7999 7.44385C27.5682 7.57407 26.4307 8.16659 25.6136 9.10344C25.2141 9.56114 24.9082 10.0936 24.7133 10.6703C24.5183 11.2471 24.4382 11.8569 24.4775 12.4649C25.0935 12.4713 25.7029 12.3368 26.2599 12.0717C26.8168 11.8067 27.3067 11.4178 27.6928 10.9345Z" fill="white"/>
  <path d="M47.8231 25.8633H43.1212L41.992 29.2197H40.0005L44.454 16.8018H46.5232L50.9768 29.2197H48.9512L47.8231 25.8633ZM43.6081 24.3144H47.3352L45.4979 18.8672H45.4465L43.6081 24.3144Z" fill="white"/>
  <path d="M60.5946 24.694C60.5946 27.5076 59.0988 29.3151 56.8414 29.3151C56.2696 29.3453 55.701 29.2127 55.2004 28.9325C54.7 28.6524 54.2881 28.2361 54.0118 27.7311H53.9691V32.2156H52.123V20.1667H53.9099V21.6726H53.9438C54.2329 21.1701 54.6518 20.7559 55.156 20.474C55.6603 20.1922 56.231 20.0533 56.8075 20.072C59.09 20.072 60.5946 21.8884 60.5946 24.694ZM58.6972 24.694C58.6972 22.8611 57.7562 21.656 56.3205 21.656C54.9101 21.656 53.9613 22.8865 53.9613 24.694C53.9613 26.5183 54.9101 27.74 56.3205 27.74C57.7562 27.74 58.6972 26.5436 58.6972 24.694Z" fill="white"/>
  <path d="M70.4936 24.694C70.4936 27.5076 68.9977 29.3151 66.7404 29.3151C66.1686 29.3453 65.5999 29.2127 65.0995 28.9325C64.599 28.6524 64.1871 28.236 63.9107 27.7311H63.868V32.2156H62.022V20.1667H63.8088V21.6726H63.8428C64.1318 21.1701 64.5507 20.7559 65.055 20.474C65.5592 20.1922 66.13 20.0533 66.7064 20.072C68.989 20.072 70.4936 21.8884 70.4936 24.694ZM68.5961 24.694C68.5961 22.8611 67.6551 21.656 66.2194 21.656C64.809 21.656 63.8603 22.8865 63.8603 24.694C63.8603 26.5183 64.809 27.74 66.2194 27.74C67.6552 27.74 68.5961 26.5436 68.5961 24.694Z" fill="white"/>
  <path d="M77.0353 25.7593C77.172 26.9908 78.3604 27.7993 79.9843 27.7993C81.5403 27.7993 82.6597 26.9907 82.6597 25.8804C82.6597 24.9165 81.9846 24.3394 80.3859 23.9439L78.7872 23.5562C76.5221 23.0054 75.4705 21.939 75.4705 20.2085C75.4705 18.066 77.3253 16.5942 79.9591 16.5942C82.5656 16.5942 84.3525 18.066 84.4126 20.2085H82.5491C82.4375 18.9693 81.4199 18.2212 79.9328 18.2212C78.4457 18.2212 77.4281 18.9781 77.4281 20.0796C77.4281 20.9576 78.0781 21.4742 79.668 21.8696L81.0271 22.2056C83.558 22.8081 84.6098 23.8316 84.6098 25.6479C84.6098 27.9712 82.7712 29.4262 79.8475 29.4262C77.1118 29.4262 75.2649 28.0054 75.1455 25.7593L77.0353 25.7593Z" fill="white"/>
  <path d="M88.594 18.0234V20.1661H90.304V21.6377H88.594V26.629C88.594 27.4043 88.9362 27.7657 89.6884 27.7657C89.8914 27.7621 90.0943 27.7478 90.2955 27.7227V29.1856C89.9576 29.2491 89.6137 29.2779 89.2699 29.2715C87.4495 29.2715 86.7397 28.583 86.7397 26.8272V21.6377H85.4321V20.1661H86.7397V18.0234H88.594Z" fill="white"/>
  <path d="M91.2944 24.6933C91.2944 21.8446 92.9611 20.0547 95.5601 20.0547C98.1675 20.0547 99.8258 21.8446 99.8258 24.6933C99.8258 27.5498 98.176 29.332 95.5601 29.332C92.9442 29.332 91.2944 27.5498 91.2944 24.6933ZM97.9451 24.6933C97.9451 22.7392 97.0553 21.5859 95.5601 21.5859C94.0641 21.5859 93.1751 22.748 93.1751 24.6933C93.1751 26.6552 94.0641 27.7998 95.5601 27.7998C97.0553 27.7998 97.9451 26.6552 97.9451 24.6933Z" fill="white"/>
  <path d="M101.348 20.1666H103.109V21.7076H103.152C103.27 21.2264 103.551 20.801 103.945 20.5031C104.339 20.2053 104.822 20.0529 105.315 20.0719C105.527 20.0711 105.739 20.0944 105.947 20.1413V21.8795C105.678 21.7969 105.398 21.759 105.118 21.7672C104.85 21.7562 104.582 21.8038 104.334 21.9067C104.086 22.0096 103.863 22.1653 103.68 22.3632C103.497 22.5612 103.36 22.7965 103.276 23.0532C103.191 23.3099 103.163 23.5818 103.194 23.8502V29.2203H101.348V20.1666Z" fill="white"/>
  <path d="M114.458 26.5605C114.211 28.204 112.62 29.332 110.586 29.332C107.97 29.332 106.346 27.5674 106.346 24.7363C106.346 21.8965 107.978 20.0547 110.509 20.0547C112.996 20.0547 114.561 21.7754 114.561 24.5205V25.1572H108.209V25.2695C108.18 25.6027 108.221 25.9383 108.331 26.2542C108.44 26.57 108.615 26.8589 108.844 27.1013C109.073 27.3439 109.351 27.5347 109.658 27.661C109.966 27.7873 110.296 27.8463 110.628 27.8339C111.065 27.8751 111.503 27.7734 111.877 27.544C112.251 27.3145 112.542 26.9696 112.706 26.5605H114.458ZM108.218 23.8583H112.714C112.731 23.5588 112.686 23.2589 112.582 22.9778C112.478 22.6966 112.317 22.44 112.11 22.2242C111.903 22.0085 111.654 21.8381 111.378 21.7239C111.102 21.6097 110.807 21.5541 110.509 21.5605C110.208 21.5587 109.91 21.6168 109.632 21.7316C109.353 21.8463 109.101 22.0154 108.888 22.2291C108.675 22.4427 108.506 22.6966 108.391 22.9763C108.276 23.256 108.217 23.5557 108.218 23.8583Z" fill="white"/>
  <path d="M42.2959 9.977H43.0884C43.2249 9.99411 43.3634 9.98262 43.4951 9.94313C43.6269 9.90372 43.7492 9.83717 43.8542 9.74781C43.9591 9.65845 44.0446 9.54823 44.1052 9.42389C44.1657 9.29964 44.2 9.16415 44.206 9.02585C44.206 8.47555 43.7947 8.12006 43.0972 8.12006C42.9574 8.1004 42.8151 8.10917 42.6788 8.14577C42.5424 8.18236 42.4147 8.24611 42.3032 8.33325C42.1917 8.42032 42.0987 8.52908 42.0297 8.653C41.9605 8.77691 41.9169 8.91351 41.9011 9.0547H41.0309C41.0459 8.79836 41.1131 8.54789 41.2284 8.31887C41.3437 8.08985 41.5046 7.88722 41.7011 7.72352C41.8975 7.55982 42.1253 7.43858 42.3704 7.36736C42.6154 7.29614 42.8724 7.27645 43.1253 7.30954C44.2923 7.30954 45.114 7.96725 45.114 8.91402C45.1167 9.23121 45.0113 9.53972 44.8153 9.78815C44.6194 10.0365 44.3447 10.2097 44.0372 10.2788V10.3491C44.4018 10.3653 44.7451 10.5263 44.9921 10.7967C45.2392 11.067 45.3698 11.4249 45.3555 11.792C45.3285 12.0559 45.2495 12.3116 45.123 12.5444C44.9966 12.7772 44.8253 12.9821 44.6191 13.1474C44.4129 13.3126 44.176 13.4347 43.9224 13.5065C43.6687 13.5784 43.4033 13.5986 43.1418 13.5658C42.8797 13.6019 42.6132 13.5843 42.358 13.5144C42.1028 13.4444 41.8643 13.3235 41.6565 13.1587C41.4487 12.9939 41.276 12.7887 41.1488 12.5554C41.0215 12.3219 40.9421 12.0652 40.9155 11.8002H41.7992C41.8526 12.371 42.3735 12.7393 43.1418 12.7393C43.9101 12.7393 44.4116 12.3257 44.4116 11.7427C44.4116 11.1514 43.9392 10.7871 43.1136 10.7871H42.2959V9.977Z" fill="white"/>
  <path d="M46.3594 12.1484C46.3594 11.3378 46.9598 10.8706 48.023 10.8041L49.2346 10.7338V10.3451C49.2346 9.86956 48.9232 9.60105 48.3189 9.60105C47.8261 9.60105 47.4856 9.78318 47.3866 10.1016H46.532C46.6222 9.32812 47.3459 8.83203 48.3606 8.83203C49.4819 8.83203 50.1145 9.39399 50.1145 10.3451V13.4218H49.2637V12.7891H49.1939C49.0521 13.016 48.8531 13.2011 48.617 13.3253C48.381 13.4495 48.1164 13.5084 47.8503 13.496C47.6626 13.5157 47.4727 13.4955 47.2933 13.4368C47.1137 13.3782 46.9483 13.2822 46.8078 13.1553C46.6673 13.0283 46.5549 12.8731 46.4776 12.6996C46.4004 12.5262 46.3601 12.3384 46.3594 12.1484ZM49.2346 11.7636V11.3872L48.1423 11.4575C47.5263 11.499 47.2469 11.7099 47.2469 12.1068C47.2469 12.5121 47.5961 12.748 48.0763 12.748C48.217 12.7623 48.3592 12.748 48.4943 12.706C48.6294 12.6639 48.7547 12.5948 48.8628 12.503C48.9708 12.4112 49.0595 12.2984 49.1233 12.1714C49.1872 12.0444 49.225 11.9056 49.2346 11.7636Z" fill="white"/>
  <path d="M52.4575 9.66654V13.4214H51.5747V8.91846H54.5198V9.66646L52.4575 9.66654Z" fill="white"/>
  <path d="M59.8695 11.1679C59.8695 12.5986 59.1506 13.4956 58.0214 13.4956C57.7443 13.5146 57.4675 13.4535 57.2236 13.3196C56.9797 13.1855 56.779 12.9842 56.6449 12.7392H56.5751V14.9184H55.6924V8.91838H56.5421V9.66255H56.6081C56.7445 9.40902 56.9479 9.19838 57.1958 9.05387C57.4436 8.90936 57.7264 8.83659 58.0128 8.84374C59.1506 8.84366 59.8695 9.73676 59.8695 11.1679ZM58.9615 11.1679C58.9615 10.2168 58.5142 9.64204 57.7664 9.64204C57.0234 9.64204 56.5586 10.2289 56.5586 11.1718C56.5586 12.1103 57.0233 12.6977 57.7625 12.6977C58.5142 12.6977 58.9615 12.123 58.9615 11.1679Z" fill="white"/>
  <path d="M61.0453 15.0342V14.269C61.1408 14.2813 61.2371 14.2868 61.3334 14.2857C61.5215 14.2996 61.7081 14.2433 61.8573 14.1273C62.0067 14.0113 62.1082 13.8439 62.1425 13.6573L62.2084 13.438L60.5894 8.91846H61.5507L62.6721 12.4951H62.742L63.8595 8.91846H64.7956L63.128 13.6074C62.7459 14.7031 62.323 15.0547 61.4111 15.0547C61.3373 15.0547 61.1277 15.0464 61.0453 15.0342Z" fill="white"/>
  <path d="M65.4834 12.1432H66.3623C66.4487 12.5402 66.8183 12.7472 67.3353 12.7472C67.9232 12.7472 68.284 12.4865 68.284 12.0812C68.284 11.6471 67.96 11.4401 67.3353 11.4401H66.666V10.7496H67.3236C67.8572 10.7496 68.1288 10.5431 68.1288 10.1667C68.1288 9.83611 67.8659 9.58369 67.3236 9.58369C66.8299 9.58369 66.469 9.79458 66.4118 10.1501H65.5611C65.6247 9.74165 65.8449 9.37458 66.1745 9.12794C66.5042 8.88131 66.9168 8.77475 67.3236 8.83118C68.3868 8.83118 68.9951 9.31509 68.9951 10.0759C69 10.2877 68.9326 10.4948 68.8041 10.6627C68.6755 10.8304 68.4936 10.9487 68.2888 10.9977V11.068C68.5327 11.0997 68.7564 11.2204 68.9177 11.4071C69.0791 11.5939 69.1666 11.8337 69.1639 12.0812C69.1639 12.9372 68.4402 13.5036 67.3353 13.5036C66.3584 13.5035 65.5649 13.0529 65.4834 12.1432Z" fill="white"/>
  <path d="M70.4351 13.4214V8.91846H71.31V12.0156H71.3799L73.4412 8.91846H74.3163V13.4214H73.4412V10.3076H73.3753L71.31 13.4214L70.4351 13.4214Z" fill="white"/>
  <path d="M79.1364 9.66646H77.7278V13.4214H76.8441V9.66646H75.4355V8.91846H79.1364V9.66646Z" fill="white"/>
  <path d="M83.8921 12.2052C83.7718 12.6167 83.5117 12.9726 83.1573 13.2107C82.8029 13.4488 82.3766 13.554 81.953 13.5079C81.6583 13.5157 81.3654 13.459 81.0947 13.3414C80.8241 13.2239 80.582 13.0485 80.3854 12.8273C80.1888 12.6062 80.0424 12.3447 79.9563 12.0608C79.8701 11.777 79.8464 11.4777 79.8868 11.1837C79.8475 10.8888 79.8717 10.5889 79.9576 10.3042C80.0434 10.0196 80.1891 9.75674 80.3847 9.53368C80.5803 9.31062 80.8212 9.13249 81.091 9.01121C81.3609 8.89002 81.6536 8.82866 81.9491 8.83113C83.1937 8.83113 83.9455 9.68713 83.9455 11.1012V11.4113H80.787V11.4611C80.7729 11.6264 80.7935 11.7927 80.8472 11.9496C80.9009 12.1064 80.9866 12.2502 81.0988 12.3716C81.211 12.4932 81.3472 12.5897 81.4986 12.655C81.6501 12.7203 81.8135 12.7531 81.9782 12.751C82.1893 12.7765 82.403 12.7381 82.5923 12.6409C82.7816 12.5437 82.9379 12.3921 83.0414 12.2052H83.8921ZM80.787 10.754H83.0453C83.0564 10.603 83.036 10.4512 82.9855 10.3086C82.935 10.1659 82.8553 10.0355 82.7517 9.92559C82.6482 9.81581 82.5228 9.72891 82.3839 9.6707C82.2451 9.61249 82.0956 9.58415 81.9452 9.58755C81.7925 9.58542 81.6409 9.61419 81.4994 9.67206C81.3579 9.72993 81.2294 9.81581 81.1214 9.92457C81.0134 10.0333 80.9282 10.1627 80.8708 10.3052C80.8134 10.4476 80.7848 10.6003 80.787 10.754Z" fill="white"/>
  <path d="M87.6343 8.91846H89.6508C90.5262 8.91846 91.039 9.36475 91.039 10.0635C91.0407 10.2852 90.966 10.5006 90.8284 10.6738C90.6909 10.8469 90.499 10.9672 90.2833 11.0146V11.0849C90.5448 11.1015 90.7894 11.2185 90.9677 11.4117C91.146 11.6049 91.2436 11.8596 91.2402 12.1231C91.2402 12.9087 90.6535 13.4214 89.6712 13.4214H87.6343V8.91846ZM88.5097 9.60058V10.7666H89.3842C89.9182 10.7666 90.173 10.5601 90.173 10.1792C90.173 9.82816 89.9505 9.60058 89.4827 9.60058H88.5097ZM88.5097 11.4199V12.7393H89.5557C90.0779 12.7393 90.3572 12.5073 90.3572 12.0815C90.3572 11.6309 90.0414 11.4199 89.4453 11.4199H88.5097Z" fill="white"/>
</svg>
