<svg viewBox="0 0 135 40" fill="none" xmlns="http://www.w3.org/2000/svg">
  <path d="M132.028 0H2.9717C1.33047 0 0 1.33362 0 2.97872V37.0213C0 38.6664 1.33047 40 2.9717 40H132.028C133.67 40 135 38.6664 135 37.0213V2.97872C135 1.33362 133.67 0 132.028 0Z" fill="black"/>
  <path fill-rule="evenodd" clip-rule="evenodd" d="M132.028 0.8H2.9717C1.77231 0.8 0.798817 1.77478 0.798817 2.97872V37.0213C0.798817 38.2252 1.77231 39.2 2.9717 39.2H132.028C133.228 39.2 134.201 38.2252 134.201 37.0213V2.97872C134.201 1.77478 133.228 0.8 132.028 0.8ZM2.9717 0H132.028C133.67 0 135 1.33362 135 2.97872V37.0213C135 38.6664 133.67 40 132.028 40H2.9717C1.33047 40 0 38.6664 0 37.0213V2.97872C0 1.33362 1.33047 0 2.9717 0Z" fill="#A6A6A6"/>
  <path d="M68.1526 21.787C67.2942 21.7891 66.4556 22.0462 65.7429 22.5259C65.0303 23.0057 64.4755 23.6864 64.1489 24.4822C63.8223 25.2779 63.7384 26.1529 63.9079 26.9965C64.0773 27.8401 64.4924 28.6143 65.1009 29.2212C65.7093 29.8283 66.4837 30.2408 67.326 30.4067C68.1684 30.5726 69.0409 30.4844 69.8332 30.1532C70.6255 29.8221 71.3021 29.2629 71.7774 28.5463C72.2526 27.8297 72.5052 26.988 72.5032 26.1275C72.5115 25.5535 72.4045 24.9836 72.1886 24.452C71.9726 23.9202 71.6521 23.4375 71.2462 23.0325C70.8402 22.6275 70.3571 22.3086 69.8257 22.0946C69.2942 21.8807 68.7252 21.7761 68.1526 21.787ZM68.1526 28.7624C67.6265 28.7993 67.1014 28.6767 66.6457 28.4104C66.19 28.1442 65.8247 27.7468 65.5973 27.2698C65.3699 26.7927 65.291 26.2581 65.3708 25.7355C65.4505 25.2128 65.6853 24.7264 66.0445 24.3393C66.4038 23.9521 66.8709 23.6824 67.3852 23.5649C67.8995 23.4474 68.4371 23.4877 68.9282 23.6806C69.4193 23.8735 69.8412 24.2099 70.1389 24.6464C70.4367 25.0827 70.5967 25.5988 70.5979 26.1275C70.6143 26.4625 70.5636 26.7974 70.4488 27.1124C70.3341 27.4275 70.1576 27.7163 69.9296 27.9618C69.7017 28.2075 69.4271 28.4048 69.1219 28.5423C68.8167 28.6798 68.4872 28.7546 68.1526 28.7624ZM58.6568 21.787C57.7983 21.7891 56.9598 22.0462 56.2471 22.5259C55.5345 23.0057 54.9797 23.6864 54.6531 24.4822C54.3264 25.2779 54.2426 26.1529 54.412 26.9965C54.5814 27.8401 54.9966 28.6143 55.605 29.2212C56.2135 29.8283 56.9879 30.2408 57.8302 30.4067C58.6725 30.5726 59.5451 30.4844 60.3373 30.1532C61.1297 29.8221 61.8063 29.2629 62.2815 28.5463C62.7567 27.8297 63.0093 26.988 63.0074 26.1275C63.0156 25.5535 62.9086 24.9836 62.6927 24.452C62.4767 23.9202 62.1563 23.4375 61.7503 23.0325C61.3444 22.6275 60.8613 22.3086 60.3299 22.0946C59.7984 21.8807 59.2294 21.7761 58.6568 21.787ZM58.6568 28.7624C58.1306 28.7993 57.6056 28.6767 57.1498 28.4104C56.6941 28.1442 56.3289 27.7468 56.1015 27.2698C55.8741 26.7927 55.7951 26.2581 55.875 25.7355C55.9547 25.2128 56.1894 24.7264 56.5487 24.3393C56.9079 23.9521 57.3751 23.6824 57.8893 23.5649C58.4036 23.4474 58.9412 23.4877 59.4323 23.6806C59.9234 23.8735 60.3453 24.2099 60.6431 24.6464C60.9408 25.0827 61.1008 25.5988 61.1021 26.1275C61.1185 26.4625 61.0678 26.7974 60.953 27.1124C60.8383 27.4275 60.6618 27.7163 60.4338 27.9618C60.2059 28.2075 59.9312 28.4048 59.6261 28.5423C59.3208 28.6798 58.9913 28.7546 58.6568 28.7624ZM47.3677 23.1249V24.9632H51.7693C51.7002 25.8291 51.3412 26.6461 50.7504 27.2815C50.3089 27.7325 49.7778 28.0854 49.1916 28.3177C48.6054 28.5498 47.9771 28.6561 47.3474 28.6296C46.0503 28.6296 44.8063 28.1132 43.8892 27.1938C42.972 26.2745 42.4568 25.0276 42.4568 23.7275C42.4568 22.4274 42.972 21.1805 43.8892 20.2612C44.8063 19.3418 46.0503 18.8253 47.3474 18.8253C48.5908 18.8069 49.7915 19.2801 50.6893 20.1428L51.9832 18.8458C51.376 18.2437 50.655 17.7692 49.8624 17.4501C49.0698 17.131 48.2217 16.9735 47.3677 16.987C46.462 16.9517 45.5584 17.1001 44.7111 17.4231C43.8639 17.7462 43.0905 18.2374 42.4372 18.8672C41.7838 19.4971 41.2641 20.2527 40.9091 21.0887C40.5541 21.9247 40.3711 22.824 40.3711 23.7326C40.3711 24.6412 40.5541 25.5405 40.9091 26.3765C41.2641 27.2125 41.7838 27.9681 42.4372 28.5979C43.0905 29.2278 43.8639 29.719 44.7111 30.0421C45.5584 30.3652 46.462 30.5135 47.3677 30.4781C48.2393 30.513 49.1083 30.3627 49.9179 30.0371C50.7274 29.7115 51.459 29.2179 52.0647 28.5887C53.1346 27.4106 53.7048 25.8612 53.6542 24.2687C53.6578 23.8855 53.6271 23.5027 53.5625 23.1249H47.3677ZM93.5326 24.5547C93.2668 23.7711 92.7701 23.087 92.1078 22.5927C91.4456 22.0984 90.6492 21.8175 89.8239 21.787C89.2669 21.786 88.715 21.8995 88.203 22.1206C87.6911 22.3416 87.23 22.6656 86.8479 23.0724C86.4659 23.4792 86.1712 23.9602 85.9827 24.4857C85.7934 25.0111 85.7136 25.5699 85.7484 26.1275C85.7399 27.0598 86.032 27.9698 86.5822 28.7218C87.1315 29.4738 87.9093 30.0272 88.7991 30.2995C89.6889 30.5719 90.6424 30.5484 91.5177 30.2327C92.3923 29.917 93.1428 29.326 93.6548 28.5479L92.1775 27.5266C91.9576 27.8946 91.6451 28.1984 91.2715 28.4081C90.8979 28.6176 90.476 28.7257 90.048 28.7215C89.6065 28.7398 89.1701 28.6238 88.7948 28.3887C88.4204 28.1535 88.1258 27.8103 87.9492 27.4041L93.7465 25.0041L93.5326 24.5547ZM87.6231 26.0049C87.6027 25.6877 87.6452 25.3695 87.7488 25.0691C87.8524 24.7686 88.0145 24.4918 88.226 24.255C88.4382 24.0182 88.6946 23.8261 88.9808 23.6899C89.2677 23.5538 89.5785 23.4762 89.8952 23.4619C90.2238 23.4418 90.5507 23.5194 90.8351 23.6847C91.1195 23.85 91.3488 24.0958 91.4948 24.3913L87.6231 26.0049ZM82.916 30.2126H84.8212V17.4466H82.916V30.2126ZM79.7983 22.7572H79.727C79.4423 22.4324 79.091 22.1729 78.6972 21.9967C78.3033 21.8204 77.876 21.7315 77.4447 21.736C76.3313 21.7901 75.2812 22.2715 74.5123 23.0806C73.7434 23.8896 73.3146 24.9641 73.3146 26.0815C73.3146 27.199 73.7434 28.2734 74.5123 29.0824C75.2812 29.8915 76.3313 30.3729 77.4447 30.427C77.8766 30.4357 78.3052 30.3487 78.6997 30.1721C79.0943 29.9956 79.445 29.7339 79.727 29.4058H79.7983V30.0287C79.7983 31.6934 78.9119 32.5819 77.4855 32.5819C77.009 32.5715 76.5463 32.4193 76.1563 32.1447C75.7662 31.8701 75.4664 31.4856 75.2949 31.0398L73.6443 31.7241C73.9495 32.4923 74.4801 33.1497 75.1659 33.6092C75.8517 34.0687 76.6605 34.3088 77.4855 34.2977C79.7168 34.2977 81.5609 32.9802 81.5609 29.7734V22.0424H79.7983V22.7572ZM77.6077 28.7624C76.9401 28.7207 76.3136 28.4254 75.8555 27.9368C75.3976 27.4482 75.1426 26.803 75.1426 26.1326C75.1426 25.4622 75.3976 24.8169 75.8555 24.3283C76.3136 23.8397 76.9401 23.5446 77.6077 23.5028C77.9339 23.5169 78.2541 23.5967 78.549 23.7373C78.8439 23.878 79.1076 24.0767 79.3243 24.3215C79.541 24.5664 79.7064 24.8525 79.8106 25.1628C79.9148 25.473 79.9556 25.8011 79.9308 26.1275C79.9585 26.455 79.9198 26.7847 79.8168 27.0968C79.7138 27.4089 79.5488 27.6968 79.3316 27.9431C79.1145 28.1894 78.8497 28.389 78.5534 28.5298C78.2571 28.6706 77.9354 28.7498 77.6077 28.7624ZM102.458 17.4466H97.8933V30.2126H99.7986V25.3717H102.458C103.001 25.4109 103.546 25.3374 104.059 25.156C104.573 24.9745 105.044 24.6891 105.442 24.3172C105.84 23.9455 106.159 23.4954 106.376 22.995C106.593 22.4947 106.706 21.9549 106.706 21.4092C106.706 20.8635 106.593 20.3236 106.376 19.8233C106.159 19.323 105.84 18.8729 105.442 18.5011C105.044 18.1293 104.573 17.8438 104.059 17.6624C103.546 17.481 103.001 17.4075 102.458 17.4466ZM102.458 23.5743H99.7986V19.2236H102.499C102.785 19.2236 103.068 19.2802 103.333 19.39C103.597 19.4999 103.838 19.6608 104.04 19.8638C104.243 20.0667 104.404 20.3076 104.513 20.5728C104.623 20.838 104.679 21.1222 104.679 21.4092C104.679 21.6962 104.623 21.9804 104.513 22.2456C104.404 22.5107 104.243 22.7516 104.04 22.9546C103.838 23.1575 103.597 23.3185 103.333 23.4284C103.068 23.5382 102.785 23.5947 102.499 23.5947L102.458 23.5743ZM114.216 21.7462C113.522 21.7033 112.831 21.8652 112.228 22.212C111.624 22.5586 111.136 23.0749 110.823 23.6968L112.504 24.4015C112.674 24.0945 112.928 23.8435 113.238 23.6785C113.547 23.5136 113.897 23.4419 114.246 23.4721C114.488 23.4439 114.733 23.4641 114.967 23.5317C115.201 23.5994 115.42 23.713 115.609 23.8661C115.799 24.0191 115.956 24.2086 116.072 24.4232C116.188 24.6378 116.26 24.8735 116.284 25.1164V25.239C115.671 24.9161 114.989 24.7479 114.297 24.7487C112.483 24.7487 110.629 25.77 110.629 27.6287C110.647 28.0239 110.744 28.4113 110.914 28.7681C111.084 29.1248 111.325 29.4437 111.62 29.7057C111.915 29.9676 112.261 30.1674 112.635 30.2931C113.009 30.4188 113.405 30.4678 113.798 30.4372C114.276 30.4638 114.752 30.3624 115.178 30.1435C115.605 29.9245 115.965 29.5959 116.223 29.1913H116.284V30.2126H118.118V25.3002C118.118 23.0636 116.427 21.7666 114.256 21.7666L114.216 21.7462ZM113.981 28.7419C113.36 28.7419 112.494 28.4253 112.494 27.6594C112.494 26.6381 113.574 26.2909 114.531 26.2909C115.137 26.2759 115.735 26.4241 116.264 26.7198C116.2 27.2744 115.937 27.787 115.525 28.1626C115.113 28.5382 114.579 28.7513 114.022 28.7624L113.981 28.7419ZM124.802 22.0424L122.621 27.5777H122.56L120.298 22.0424H118.26L121.653 29.7836L119.717 34.0832H121.704L126.921 22.0424H124.802ZM107.685 30.2126H109.58V17.4466H107.685V30.2126Z" fill="white"/>
  <path d="M9.36313 7.27461C9.02741 7.67253 8.85607 8.18405 8.88426 8.70439V31.295C8.84962 31.8163 9.02172 32.3302 9.36313 32.7248L9.43445 32.8065L22.0582 20.1529V19.8465L9.43445 7.20312L9.36313 7.27461Z" fill="url(#paint0_linear)"/>
  <path d="M26.2355 24.371L22.0581 20.1532V19.8468L26.2355 15.6289L26.3272 15.6902L31.3298 18.5293C32.7562 19.3361 32.7562 20.6638 31.3298 21.4808L26.3475 24.32L26.2355 24.371Z" fill="url(#paint1_linear)"/>
  <path d="M26.3585 24.3098L22.0589 20L9.36377 32.7251C9.65168 32.982 10.0202 33.1297 10.4054 33.1428C10.7906 33.1558 11.1683 33.0334 11.4728 32.7966L26.3585 24.3098Z" fill="url(#paint2_linear)"/>
  <path d="M26.3585 15.6901L11.4728 7.21344C11.1702 6.97334 10.7929 6.84788 10.4072 6.85909C10.0214 6.87029 9.65194 7.01746 9.36377 7.27471L22.0589 19.9998L26.3585 15.6901Z" fill="url(#paint3_linear)"/>
  <path opacity="0.2" d="M26.2362 24.2178L11.4728 32.6433C11.1793 32.8653 10.8217 32.9854 10.454 32.9854C10.0863 32.9854 9.72861 32.8653 9.43509 32.6433L9.36377 32.7148L9.43509 32.7965C9.72861 33.0185 10.0863 33.1386 10.454 33.1386C10.8217 33.1386 11.1793 33.0185 11.4728 32.7965L26.3585 24.3097L26.2362 24.2178Z" fill="black"/>
  <path opacity="0.12" d="M9.36439 32.5821C9.03639 32.1771 8.87562 31.6619 8.91503 31.1421V31.2953C8.88031 31.8166 9.05282 32.3304 9.39503 32.7251L9.46652 32.6536L9.36439 32.5821Z" fill="black"/>
  <path opacity="0.12" d="M31.3302 21.3277L26.2358 24.2179L26.3275 24.3098L31.3302 21.4706C31.6255 21.3454 31.8816 21.1428 32.0717 20.884C32.2618 20.6252 32.3787 20.3197 32.4102 20C32.3465 20.2906 32.2156 20.5621 32.028 20.7928C31.8404 21.0234 31.6014 21.2066 31.3302 21.3277Z" fill="black"/>
  <path opacity="0.25" d="M11.4722 7.35627L31.3299 18.672C31.601 18.7931 31.84 18.9763 32.0277 19.2069C32.2152 19.4375 32.3462 19.7091 32.4099 19.9997C32.3784 19.6799 32.2615 19.3745 32.0714 19.1157C31.8814 18.8569 31.6252 18.6542 31.3299 18.5291L11.4722 7.21329C10.056 6.39627 8.88428 7.07031 8.88428 8.70437V8.85757C8.91484 7.22351 10.056 6.54946 11.4722 7.35627Z" fill="white"/>
  <path d="M41.631 14.1478H40.8872V12.1053H41.5189C41.8032 11.796 42.0169 11.4284 42.1453 11.0282C42.2737 10.6278 42.3138 10.2044 42.2627 9.78699V6.72314H46.3382V12.0951H47.0208V14.1376H46.2668V12.8508H41.631V14.1478ZM43.0472 9.78699C43.0926 10.6073 42.8903 11.4224 42.4665 12.1257H45.5231V7.47889H43.0472V9.78699Z" fill="white" stroke="white" stroke-width="0.2" stroke-miterlimit="10"/>
  <path d="M53.1442 12.0546C52.8508 12.3495 52.5023 12.5835 52.1185 12.7431C51.7347 12.9028 51.3234 12.985 50.9078 12.985C50.4923 12.985 50.0809 12.9028 49.6972 12.7431C49.3134 12.5835 48.9649 12.3495 48.6714 12.0546C48.0885 11.4444 47.7632 10.6322 47.7632 9.78738C47.7632 8.94261 48.0885 8.13035 48.6714 7.52017C48.9649 7.22527 49.3134 6.9913 49.6972 6.83166C50.0809 6.67201 50.4923 6.58984 50.9078 6.58984C51.3234 6.58984 51.7347 6.67201 52.1185 6.83166C52.5023 6.9913 52.8508 7.22527 53.1442 7.52017C53.4386 7.81838 53.6704 8.17257 53.8262 8.56193C53.9819 8.95129 54.0583 9.36797 54.051 9.78738C54.0631 10.2075 53.9888 10.6255 53.8328 11.0155C53.6768 11.4056 53.4424 11.7593 53.1442 12.0546ZM49.242 11.544C49.4567 11.7675 49.7148 11.9445 50.0005 12.0639C50.2862 12.1834 50.5933 12.2428 50.9027 12.2384C51.2125 12.2447 51.5202 12.186 51.8061 12.0664C52.092 11.947 52.35 11.769 52.5635 11.544C53.0031 11.0652 53.2472 10.4382 53.2472 9.78738C53.2472 9.13665 53.0031 8.50967 52.5635 8.03081C52.35 7.80582 52.092 7.62788 51.8061 7.50832C51.5202 7.38875 51.2125 7.33018 50.9027 7.33634C50.5933 7.33203 50.2862 7.39144 50.0005 7.5109C49.7148 7.63035 49.4567 7.80731 49.242 8.03081C48.8088 8.51282 48.5691 9.13861 48.5691 9.78738C48.5691 10.4361 48.8088 11.0619 49.242 11.544Z" fill="white" stroke="white" stroke-width="0.2" stroke-miterlimit="10"/>
  <path d="M58.0044 12.9833C57.5921 12.9898 57.1828 12.9126 56.8011 12.7565C56.4193 12.6002 56.0731 12.3682 55.7832 12.0744C55.1953 11.4586 54.8672 10.6391 54.8672 9.78675C54.8672 8.93441 55.1953 8.11492 55.7832 7.49907C56.0779 7.20018 56.4307 6.96525 56.8198 6.80889C57.209 6.65252 57.626 6.57806 58.0451 6.59013C58.4716 6.57804 58.8953 6.66376 59.2837 6.84074C59.6723 7.01774 60.0153 7.28133 60.2866 7.61141L59.7466 8.1425C59.5464 7.88451 59.2875 7.67847 58.9914 7.54164C58.6953 7.40479 58.3708 7.34117 58.0451 7.35609C57.7315 7.34807 57.4195 7.40467 57.1286 7.52236C56.8377 7.64006 56.574 7.81636 56.3538 8.04034C55.9149 8.5236 55.6717 9.15365 55.6717 9.80718C55.6717 10.4607 55.9149 11.0907 56.3538 11.574C56.574 11.798 56.8377 11.9742 57.1286 12.0919C57.4195 12.2096 57.7315 12.2662 58.0451 12.2582C58.3952 12.2483 58.7389 12.1617 59.0521 12.0047C59.3654 11.8478 59.6407 11.624 59.8587 11.3493L60.4089 11.8906C60.1297 12.2258 59.7824 12.4975 59.39 12.6872C58.9566 12.8902 58.4826 12.9914 58.0044 12.9833Z" fill="white" stroke="white" stroke-width="0.2" stroke-miterlimit="10"/>
  <path d="M63.608 12.8508H62.8235V7.47889H61.1118V6.72314H65.3096V7.47889H63.608V12.8508Z" fill="white" stroke="white" stroke-width="0.2" stroke-miterlimit="10"/>
  <path d="M70.7097 6.72314L68.3968 11.8908C68.3407 12.098 68.2404 12.2905 68.1027 12.4549C67.965 12.6194 67.7933 12.7518 67.5995 12.8432C67.4057 12.9345 67.1943 12.9825 66.9801 12.9838C66.766 12.9851 66.554 12.9398 66.3591 12.8508L66.5629 12.1257C66.6875 12.1959 66.8274 12.2345 66.9704 12.2381C67.1212 12.2456 67.2707 12.2064 67.3984 12.1257C67.5221 12.0225 67.6169 11.8887 67.6734 11.7376L67.8976 11.2474L65.8599 6.72314H66.787L68.295 10.2364L69.7825 6.72314H70.7097Z" fill="white" stroke="white" stroke-width="0.2" stroke-miterlimit="10"/>
  <path d="M71.5962 12.8508V6.72314H76.0181V12.8508H75.2336V7.47889H72.3807V12.8508H71.5962Z" fill="white" stroke="white" stroke-width="0.2" stroke-miterlimit="10"/>
  <path d="M77.4136 12.8508V6.72314H78.1981V9.34784H81.2547V6.72314H82.0494V12.8508H81.2547V10.0832H78.1981V12.8508H77.4136Z" fill="white" stroke="white" stroke-width="0.2" stroke-miterlimit="10"/>
  <path d="M88.4479 12.0546C88.1533 12.3498 87.8043 12.5841 87.4197 12.7438C87.0351 12.9036 86.6224 12.9858 86.2064 12.9858C85.7903 12.9858 85.3777 12.9036 84.9931 12.7438C84.6085 12.5841 84.2592 12.3498 83.9649 12.0546C83.382 11.4444 83.0566 10.6322 83.0566 9.78738C83.0566 8.94261 83.382 8.13035 83.9649 7.52017C84.2583 7.22527 84.6068 6.9913 84.9905 6.83166C85.3743 6.67201 85.7861 6.58984 86.2013 6.58984C86.6165 6.58984 87.0283 6.67201 87.412 6.83166C87.7958 6.9913 88.1439 7.22527 88.4377 7.52017C89.0159 8.13274 89.3386 8.94406 89.3386 9.78738C89.3386 10.6308 89.0159 11.442 88.4377 12.0546H88.4479ZM84.5456 11.544C84.7596 11.769 85.0169 11.947 85.303 12.0664C85.5891 12.186 85.8965 12.2447 86.2064 12.2384C86.5163 12.2428 86.8228 12.1834 87.1089 12.0639C87.3942 11.9445 87.6523 11.7675 87.8671 11.544C88.3002 11.0619 88.5404 10.4361 88.5404 9.78738C88.5404 9.13861 88.3002 8.51282 87.8671 8.03081C87.6523 7.80731 87.3942 7.63035 87.1089 7.5109C86.8228 7.39144 86.5163 7.33203 86.2064 7.33634C85.8965 7.33018 85.5891 7.38875 85.303 7.50832C85.0169 7.62788 84.7596 7.80582 84.5456 8.03081C84.106 8.50967 83.862 9.13665 83.862 9.78738C83.862 10.4382 84.106 11.0652 84.5456 11.544Z" fill="white" stroke="white" stroke-width="0.2" stroke-miterlimit="10"/>
  <path d="M92.5542 12.8509V6.72324H94.7651C95.2236 6.71862 95.6668 6.88622 96.0082 7.19302C96.1788 7.34113 96.3138 7.52491 96.4055 7.7314C96.4972 7.93788 96.5422 8.16197 96.538 8.38793C96.5405 8.66299 96.4624 8.93286 96.3138 9.1641C96.1635 9.38333 95.9555 9.55661 95.7127 9.66452C96.0065 9.76537 96.2654 9.94988 96.4565 10.1956C96.6441 10.4459 96.7443 10.7508 96.7417 11.0637C96.7468 11.2991 96.7001 11.5328 96.605 11.7481C96.51 11.9635 96.369 12.1552 96.1916 12.3096C95.8383 12.6395 95.3705 12.8189 94.8874 12.8101L92.5542 12.8509ZM93.3387 9.34793H94.7651C94.8984 9.35567 95.0317 9.33303 95.1557 9.28171C95.2788 9.23048 95.3892 9.15184 95.4783 9.05176C95.6516 8.88205 95.75 8.65082 95.7534 8.40835C95.7628 8.16512 95.6796 7.92752 95.5191 7.74451C95.4333 7.64927 95.3281 7.57423 95.21 7.52479C95.092 7.47535 94.9647 7.45273 94.8365 7.45856H93.3693L93.3387 9.34793ZM93.3387 12.0952H94.9282C95.0666 12.0998 95.2033 12.0738 95.3306 12.0191C95.4571 11.9644 95.57 11.8822 95.6617 11.7786C95.8375 11.5902 95.936 11.3421 95.9368 11.0841C95.9309 10.8283 95.829 10.584 95.6516 10.3998C95.5531 10.2964 95.435 10.2149 95.3026 10.1604C95.171 10.1058 95.03 10.0796 94.8874 10.0832H93.3387V12.0952Z" fill="white" stroke="white" stroke-width="0.2" stroke-miterlimit="10"/>
  <defs>
    <linearGradient id="paint0_linear" x1="20.9375" y1="8.4695" x2="3.80051" y2="25.5661" gradientUnits="userSpaceOnUse">
      <stop stop-color="#00A0FF"/>
      <stop offset="0.01" stop-color="#00A1FF"/>
      <stop offset="0.26" stop-color="#00BEFF"/>
      <stop offset="0.51" stop-color="#00D2FF"/>
      <stop offset="0.76" stop-color="#00DFFF"/>
      <stop offset="1" stop-color="#00E3FF"/>
    </linearGradient>
    <linearGradient id="paint1_linear" x1="33.1943" y1="20" x2="8.54792" y2="20" gradientUnits="userSpaceOnUse">
      <stop stop-color="#FFE000"/>
      <stop offset="0.41" stop-color="#FFBD00"/>
      <stop offset="0.78" stop-color="#FFA500"/>
      <stop offset="1" stop-color="#FF9C00"/>
    </linearGradient>
    <linearGradient id="paint2_linear" x1="24.0253" y1="22.3489" x2="0.781119" y2="45.5281" gradientUnits="userSpaceOnUse">
      <stop stop-color="#FF3A44"/>
      <stop offset="1" stop-color="#C31162"/>
    </linearGradient>
    <linearGradient id="paint3_linear" x1="6.16454" y1="-0.241882" x2="16.5407" y2="10.1098" gradientUnits="userSpaceOnUse">
      <stop stop-color="#32A071"/>
      <stop offset="0.07" stop-color="#2DA771"/>
      <stop offset="0.48" stop-color="#15CF74"/>
      <stop offset="0.8" stop-color="#06E775"/>
      <stop offset="1" stop-color="#00F076"/>
    </linearGradient>
  </defs>
</svg>
