<svg width="189" height="56" viewBox="0 0 189 56" fill="none" xmlns="http://www.w3.org/2000/svg">
  <path d="M184.84 0H4.16038C1.86266 0 0 1.86707 0 4.17021V51.8298C0 54.1329 1.86266 56 4.16038 56H184.84C187.137 56 189 54.1329 189 51.8298V4.17021C189 1.86707 187.137 0 184.84 0Z" fill="black"/>
  <path fill-rule="evenodd" clip-rule="evenodd" d="M184.84 1.12H4.16038C2.48124 1.12 1.11834 2.4847 1.11834 4.17021V51.8298C1.11834 53.5153 2.48124 54.88 4.16038 54.88H184.84C186.519 54.88 187.882 53.5153 187.882 51.8298V4.17021C187.882 2.48469 186.519 1.12 184.84 1.12ZM4.16038 0H184.84C187.137 0 189 1.86707 189 4.17021V51.8298C189 54.1329 187.137 56 184.84 56H4.16038C1.86266 56 0 54.1329 0 51.8298V4.17021C0 1.86707 1.86266 0 4.16038 0Z" fill="#A6A6A6"/>
  <path d="M47.8338 32.1766L50.8351 32.9354C52.1939 33.2789 53.5112 32.2442 53.5112 30.8334V16.1998C53.5112 14.9577 52.6724 13.8747 51.476 13.5722L42.8715 11.3969C41.5127 11.0533 40.1954 12.0881 40.1954 13.4989V16.1369L34.7739 14.7662C33.4151 14.4227 32.0978 15.4574 32.0978 16.8683V19.5062L26.676 18.1356C25.3173 17.7921 24 18.8268 24 20.2376V34.8712C24 36.1132 24.8388 37.1963 26.0351 37.4987L34.6398 39.6741C35.9986 40.0176 37.3157 38.9829 37.3157 37.572L37.3181 22.9581C37.3181 21.7237 36.5458 21.0097 36.2658 20.7903C36.2123 20.7485 36.1976 20.6705 36.236 20.6141C36.2736 20.5587 36.3416 20.5325 36.4053 20.552C37.5389 20.8984 38.6238 22.0748 38.732 23.5539L39.1065 34.7295C39.1188 35.0965 39.3533 35.4147 39.6908 35.5346L42.7376 36.3048C44.0962 36.6484 45.4135 35.6135 45.4135 34.2027L45.4158 19.5921C45.4158 18.3575 44.6453 17.6418 44.3653 17.4225C44.3119 17.3807 44.2971 17.3026 44.3355 17.2463C44.3731 17.1908 44.4411 17.1647 44.5048 17.1841C45.6384 17.5306 46.7233 18.7069 46.8316 20.1861L47.206 31.3609C47.2187 31.7428 47.4734 32.0713 47.8338 32.1766Z" fill="#3F70EE"/>
  <path d="M83.2575 43.2689H80.1662L75.2611 36.3397H72.6809V43.2689H70.0494V25.0411H76.3853C77.6115 25.0411 78.71 25.2825 79.6808 25.765C80.6517 26.2477 81.4011 26.9199 81.9289 27.7818C82.474 28.6264 82.7464 29.6003 82.7464 30.7033C82.7464 32.0824 82.3292 33.263 81.4946 34.2455C80.6602 35.2107 79.5446 35.8486 78.148 36.1588L83.2575 43.2689ZM72.6809 27.4973V33.9095H76.3853C77.4752 33.9095 78.3524 33.6164 79.0166 33.0303C79.6979 32.427 80.0384 31.6514 80.0384 30.7033C80.0384 29.7554 79.6979 28.9884 79.0166 28.4022C78.3524 27.7989 77.4752 27.4973 76.3853 27.4973H72.6809ZM90.2397 43.5275C89.3029 43.5275 88.4598 43.2949 87.7104 42.8293C86.961 42.3468 86.3735 41.6918 85.9476 40.8645C85.5219 40.0198 85.3091 39.0717 85.3091 38.0204V29.9019H87.8125V37.8136C87.8125 38.8306 88.0936 39.6579 88.6556 40.2955C89.2176 40.9334 89.9416 41.2522 90.8273 41.2522C91.7469 41.2522 92.5133 40.9248 93.1264 40.2698C93.7397 39.6148 94.0462 38.796 94.0462 37.8136V29.9019H96.5499V43.2689H94.7615L94.1738 41.2522C93.7481 41.9763 93.1861 42.5365 92.4878 42.9328C91.8065 43.3292 91.0571 43.5275 90.2397 43.5275ZM105.883 43.5275C104.231 43.5275 102.792 43.0966 101.566 42.2348C100.356 41.3556 99.5303 40.1664 99.0876 38.6667L101.617 38.253C102.111 39.2183 102.698 39.9336 103.379 40.3989C104.061 40.8471 104.895 41.0713 105.883 41.0713C106.888 41.0713 107.705 40.8471 108.336 40.3989C108.966 39.9336 109.281 39.3045 109.281 38.5116C109.281 37.9256 109.102 37.4343 108.744 37.0378C108.404 36.6413 107.97 36.3225 107.441 36.0812C106.914 35.84 106.224 35.5727 105.372 35.2798C104.231 34.9005 103.294 34.5214 102.562 34.1421C101.83 33.7629 101.208 33.2285 100.697 32.5392C100.203 31.8324 99.9562 30.9361 99.9562 29.8502C99.9562 28.8333 100.203 27.9455 100.697 27.187C101.208 26.4114 101.906 25.8167 102.792 25.4031C103.678 24.9894 104.665 24.7826 105.755 24.7826C107.271 24.7826 108.574 25.1877 109.664 25.9978C110.754 26.7906 111.529 27.8852 111.989 29.2813L109.511 29.6951C109.17 28.9021 108.685 28.2988 108.055 27.8852C107.425 27.4542 106.684 27.2388 105.832 27.2388C104.912 27.2388 104.155 27.4629 103.558 27.9109C102.962 28.342 102.664 28.9367 102.664 29.6951C102.664 30.2639 102.834 30.7464 103.175 31.1429C103.533 31.5394 103.967 31.8582 104.478 32.0996C105.006 32.3409 105.704 32.6166 106.573 32.9269C107.68 33.3062 108.6 33.6939 109.332 34.0904C110.081 34.4697 110.712 35.0125 111.223 35.7192C111.734 36.4259 111.989 37.3137 111.989 38.3824C111.989 39.4165 111.716 40.3215 111.172 41.0971C110.643 41.8727 109.911 42.476 108.974 42.907C108.055 43.3206 107.024 43.5275 105.883 43.5275ZM122.564 41.0454L122.335 43.2689H120.01C118.63 43.2689 117.583 42.9242 116.868 42.2348C116.152 41.5453 115.794 40.5542 115.794 39.2614V32.1513H113.521V29.9019H115.794L116.484 26.0236H118.298V29.9019H122.335V32.1513H118.298V39.2614C118.298 40.4506 118.869 41.0454 120.01 41.0454H122.564ZM130.914 43.5275C129.568 43.5275 128.367 43.2344 127.312 42.6485C126.256 42.0623 125.43 41.2436 124.833 40.1921C124.237 39.1408 123.939 37.9428 123.939 36.5984C123.939 35.2538 124.237 34.0558 124.833 33.0045C125.43 31.953 126.256 31.1343 127.312 30.5482C128.367 29.9449 129.568 29.6434 130.914 29.6434C132.259 29.6434 133.46 29.9449 134.516 30.5482C135.572 31.1343 136.398 31.953 136.994 33.0045C137.59 34.0558 137.888 35.2538 137.888 36.5984C137.888 37.9428 137.59 39.1408 136.994 40.1921C136.398 41.2436 135.572 42.0623 134.516 42.6485C133.46 43.2344 132.259 43.5275 130.914 43.5275ZM130.914 41.2005C132.208 41.2005 133.256 40.7782 134.056 39.9336C134.874 39.0891 135.282 37.9773 135.282 36.5984C135.282 35.2193 134.874 34.1075 134.056 33.263C133.256 32.4012 132.208 31.9702 130.914 31.9702C129.619 31.9702 128.572 32.4012 127.771 33.263C126.971 34.1075 126.571 35.2193 126.571 36.5984C126.571 37.96 126.971 39.0717 127.771 39.9336C128.572 40.7782 129.619 41.2005 130.914 41.2005ZM140.573 43.2689V29.9019H142.387L142.923 31.8151C143.315 31.1429 143.8 30.6604 144.379 30.3673C144.959 30.057 145.648 29.9019 146.449 29.9019H147.062L147.266 32.3323H145.836C144.916 32.3323 144.226 32.5994 143.766 33.1337C143.307 33.6681 143.077 34.392 143.077 35.3056V43.2689H140.573ZM161.58 36.495C161.58 36.8396 161.571 37.1069 161.554 37.2964H150.645C150.782 38.4858 151.242 39.4337 152.025 40.1404C152.808 40.8471 153.805 41.2005 155.014 41.2005C155.849 41.2005 156.589 41.0368 157.237 40.7094C157.901 40.3646 158.403 39.9164 158.744 39.3648L161.094 39.7527C160.583 40.9591 159.757 41.89 158.616 42.545C157.492 43.2001 156.24 43.5275 154.861 43.5275C153.549 43.5275 152.374 43.2344 151.335 42.6485C150.296 42.0452 149.487 41.2178 148.908 40.1664C148.329 39.1149 148.04 37.9256 148.04 36.5984C148.04 35.2538 148.329 34.0558 148.908 33.0045C149.487 31.953 150.288 31.1343 151.31 30.5482C152.332 29.9449 153.498 29.6434 154.81 29.6434C156.104 29.6434 157.262 29.9449 158.284 30.5482C159.323 31.1343 160.132 31.953 160.711 33.0045C161.29 34.0386 161.58 35.2021 161.58 36.495ZM154.81 31.8927C153.805 31.8927 152.936 32.1944 152.204 32.7977C151.488 33.401 151.012 34.2111 150.773 35.2281H158.846C158.625 34.2283 158.148 33.4268 157.415 32.8234C156.7 32.203 155.831 31.8927 154.81 31.8927Z" fill="white"/>
  <path d="M70.0103 19.6573V16.3624H70.2248C70.5031 16.3624 70.7258 16.2939 70.8927 16.1572C71.0596 16.0204 71.1989 15.7468 71.3101 15.3364C71.4294 14.918 71.5209 14.3025 71.5844 13.4898L71.9302 9H77.2252V16.3624H78.4536V19.6573H77.2252V17.5089H71.2385V19.6573H70.0103ZM75.997 16.3624V10.1466H73.0632L72.8128 13.5502C72.7174 14.91 72.471 15.8474 72.0733 16.3624H75.997ZM82.3585 17.6297C81.7303 17.6297 81.1698 17.4929 80.6769 17.2192C80.1839 16.9458 79.7984 16.5635 79.5201 16.0727C79.2418 15.5818 79.1027 15.0226 79.1027 14.395C79.1027 13.7674 79.2418 13.2082 79.5201 12.7174C79.7984 12.2266 80.1839 11.8444 80.6769 11.5708C81.1698 11.2892 81.7303 11.1483 82.3585 11.1483C82.9865 11.1483 83.5471 11.2892 84.0399 11.5708C84.5329 11.8444 84.9184 12.2266 85.1967 12.7174C85.4751 13.2082 85.6141 13.7674 85.6141 14.395C85.6141 15.0226 85.4751 15.5818 85.1967 16.0727C84.9184 16.5635 84.5329 16.9458 84.0399 17.2192C83.5471 17.4929 82.9865 17.6297 82.3585 17.6297ZM82.3585 16.5433C82.9627 16.5433 83.4515 16.3462 83.8252 15.952C84.2068 15.5577 84.3977 15.0387 84.3977 14.395C84.3977 13.7513 84.2068 13.2323 83.8252 12.8381C83.4515 12.4357 82.9627 12.2346 82.3585 12.2346C81.7543 12.2346 81.2653 12.4357 80.8916 12.8381C80.5179 13.2323 80.3311 13.7513 80.3311 14.395C80.3311 15.0307 80.5179 15.5497 80.8916 15.952C81.2653 16.3462 81.7543 16.5433 82.3585 16.5433ZM89.7058 17.6297C89.0937 17.6297 88.5411 17.4929 88.0481 17.2192C87.5632 16.9377 87.1854 16.5513 86.9152 16.0606C86.6448 15.5698 86.5096 15.0146 86.5096 14.395C86.5096 13.7674 86.6448 13.2082 86.9152 12.7174C87.1854 12.2266 87.5632 11.8444 88.0481 11.5708C88.5331 11.2892 89.0856 11.1483 89.7058 11.1483C90.3656 11.1483 90.954 11.3093 91.4708 11.6311C91.9955 11.953 92.3692 12.4156 92.5918 13.0191L91.4946 13.2001C91.3515 12.9105 91.125 12.6771 90.8149 12.5001C90.5128 12.3231 90.167 12.2346 89.7774 12.2346C89.1732 12.2346 88.6801 12.4357 88.2985 12.8381C87.9248 13.2404 87.738 13.7594 87.738 14.395C87.738 15.0307 87.9248 15.5497 88.2985 15.952C88.6801 16.3462 89.1732 16.5433 89.7774 16.5433C90.1828 16.5433 90.5406 16.4509 90.8507 16.2657C91.1687 16.0807 91.3992 15.8353 91.5424 15.5295L92.6394 15.7106C92.417 16.3221 92.0352 16.7968 91.4946 17.1349C90.9619 17.4647 90.3656 17.6297 89.7058 17.6297ZM96.2479 17.5089H95.0791V12.3553H92.9445V11.269H98.3827V12.3553H96.2479V17.5089ZM103.904 11.269H105.108L102.532 18.4503C102.342 18.9894 102.091 19.3797 101.781 19.6211C101.471 19.8624 101.058 19.9832 100.541 19.9832H99.6227L99.5153 18.897H100.612C100.843 18.897 101.022 18.8445 101.149 18.74C101.276 18.6435 101.384 18.4705 101.471 18.2211L101.602 17.8589L98.8593 11.269H100.111L102.067 16.0847H102.234L103.904 11.269ZM107.334 17.5089H106.165V11.269H111.413V17.5089H110.244V12.3553H107.334V17.5089ZM117.163 13.8157V11.269H118.332V17.5089H117.163V14.902H114.194V17.5089H113.025V11.269H114.194V13.8157H117.163ZM122.841 17.6297C122.213 17.6297 121.652 17.4929 121.159 17.2192C120.666 16.9458 120.281 16.5635 120.002 16.0727C119.724 15.5818 119.585 15.0226 119.585 14.395C119.585 13.7674 119.724 13.2082 120.002 12.7174C120.281 12.2266 120.666 11.8444 121.159 11.5708C121.652 11.2892 122.213 11.1483 122.841 11.1483C123.469 11.1483 124.029 11.2892 124.522 11.5708C125.015 11.8444 125.401 12.2266 125.679 12.7174C125.957 13.2082 126.096 13.7674 126.096 14.395C126.096 15.0226 125.957 15.5818 125.679 16.0727C125.401 16.5635 125.015 16.9458 124.522 17.2192C124.029 17.4929 123.469 17.6297 122.841 17.6297ZM122.841 16.5433C123.445 16.5433 123.934 16.3462 124.308 15.952C124.689 15.5577 124.88 15.0387 124.88 14.395C124.88 13.7513 124.689 13.2323 124.308 12.8381C123.934 12.4357 123.445 12.2346 122.841 12.2346C122.236 12.2346 121.748 12.4357 121.374 12.8381C121 13.2323 120.813 13.7513 120.813 14.395C120.813 15.0307 121 15.5497 121.374 15.952C121.748 16.3462 122.236 16.5433 122.841 16.5433ZM134.305 14.2381C134.623 14.3588 134.878 14.5559 135.068 14.8295C135.267 15.0951 135.367 15.4089 135.367 15.7709C135.367 16.1008 135.271 16.3985 135.08 16.6641C134.897 16.9295 134.639 17.1388 134.305 17.2917C133.971 17.4365 133.59 17.5089 133.16 17.5089H130.215V11.269H133.053C133.458 11.269 133.82 11.3415 134.138 11.4863C134.456 11.6311 134.703 11.8283 134.878 12.0777C135.061 12.3271 135.152 12.6128 135.152 12.9346C135.152 13.2404 135.076 13.5059 134.925 13.7312C134.782 13.9485 134.576 14.1174 134.305 14.2381ZM131.383 12.2708V13.8036H133.053C133.323 13.8036 133.546 13.7352 133.721 13.5984C133.896 13.4536 133.983 13.2685 133.983 13.0433C133.983 12.8179 133.896 12.6329 133.721 12.4881C133.546 12.3432 133.323 12.2708 133.053 12.2708H131.383ZM133.16 16.5071C133.47 16.5071 133.721 16.4266 133.912 16.2657C134.103 16.1049 134.198 15.8957 134.198 15.6382C134.198 15.3807 134.103 15.1715 133.912 15.0106C133.721 14.8496 133.47 14.7692 133.16 14.7692H131.383V16.5071H133.16Z" fill="white"/>
</svg>
